<?xml version="1.0" standalone="no"?>
<!DOCTYPE svg PUBLIC "-//W3C//DTD SVG 1.1//EN" "http://www.w3.org/Graphics/SVG/1.1/DTD/svg11.dtd" >
<svg>
<metadata>
Created by FontForge 20090914 at Tue Jan 17 17:57:33 2017
 By www-data
Copyright (c) Gophmann Alexandria Leopoldovna, 2008. All rights reserved.
</metadata>
<defs>
<font id="AstoriaDeco-Medium" horiz-adv-x="450" >
  <font-face 
    font-family="Astoria Deco"
    font-weight="500"
    font-stretch="normal"
    units-per-em="1000"
    panose-1="2 0 6 6 2 0 0 2 0 4"
    ascent="800"
    descent="-200"
    x-height="265"
    cap-height="792"
    bbox="-216 -434 1146 1049"
    underline-thickness="20"
    underline-position="-123"
    unicode-range="U+0020-U+2122"
  />
<missing-glyph horiz-adv-x="1000" 
 />
    <glyph glyph-name=".notdef" horiz-adv-x="1000" 
 />
    <glyph glyph-name="space" unicode=" " horiz-adv-x="200" 
 />
    <glyph glyph-name="exclam" unicode="!" horiz-adv-x="106" 
d="M28 969h50v-795h-48zM52 42c-10.667 0 -20.334 4.16699 -29.001 12.5s-13 18.166 -13 29.499c0 10.667 4.33301 20.334 13 29.001s18.334 13 29.001 13c12 0 22.333 -4.33301 31 -13s13 -18.334 13 -29.001c0 -11.333 -4.33301 -21.166 -13 -29.499s-19 -12.5 -31 -12.5z
" />
    <glyph glyph-name="quotedbl" unicode="&#x22;" horiz-adv-x="160" 
d="M111 835l-10.5 64.501c-3 19 -8.16699 44.167 -15.5 75.5h65l-8 -44.5c-2 -11.667 -4 -22.167 -6 -31.5l-6 -28.5c-2 -9.66699 -4 -20.834 -6 -33.501zM36 835.001l-10.5 64.5c-3 19 -8.16699 44.167 -15.5 75.5h65l-8 -44.5c-2 -11.667 -4 -22.167 -6 -31.5l-6 -28.5
c-2 -9.66699 -4 -21.5 -6 -35.5h-13z" />
    <glyph glyph-name="numbersign" unicode="#" horiz-adv-x="318" 
d="M193 99h-46l24 117h-57l-26 -117h-46l24 115h-45v50h55l12 55h-67v48h78l25 119h47l-24 -119h57l24 119h48l-26 -117h47v-48h-57l-12 -56h69v-49h-80zM124 264h57l12 57h-57z" />
    <glyph glyph-name="dollar" unicode="$" horiz-adv-x="264" 
d="M196 418c-2.66699 8 -10.665 17.666 -23.998 28.999l-24 -126h6c4 -8 9 -14.667 15 -20c16 -16.667 27.667 -32.667 35 -48c8 -16 11.167 -32.167 9.5 -48.5s-7.16699 -31 -16.5 -44s-21.833 -23.5 -37.5 -31.5s-32.834 -12 -51.501 -12l-12 -65l-27 6l12 62
c-5.33301 2.66699 -9.5 4.83398 -12.5 6.50098s-5.5 3.5 -7.5 5.5c-20 12.667 -33.333 31 -40 55l46 11c2 -4 4.5 -8 7.5 -12s8.5 -10 16.5 -18l23 123c-2 4 -4 7.16699 -6 9.5s-4 4.5 -6 6.5c-2 3.33301 -5.66699 7.33301 -11 12c-4.66699 7.33301 -10.334 15 -17.001 23
s-12 16 -16 24c-10 20 -11.167 41.167 -3.5 63.5s20.5 39.5 38.5 51.5c16 12 36.333 18 61 18l9 47l27 -6l-9 -44l23 -12c20 -12.667 33 -31 39 -55l-47 -11v0zM120.002 441.999c-11.333 -8 -18.166 -17.5 -20.499 -28.5s-0.166016 -21.833 6.50098 -32.5
c1.33301 -2 2.16602 -3.33301 2.49902 -4s1.16602 -2 2.49902 -4c2 -2.66699 3.5 -5 4.5 -7s3.83301 -8 8.5 -18l21 102c-8 0 -13.667 -0.833008 -17 -2.5s-6 -3.5 -8 -5.5zM117.002 162.999c20.667 5.33301 34.832 15.5 42.499 30.5s6.83398 29.833 -2.49902 44.5
c-2 4 -9 12 -21 24z" />
    <glyph glyph-name="percent" unicode="%" horiz-adv-x="463" 
d="M121 277c-26 0 -48.167 9.33301 -66.5 28s-27.5 41 -27.5 67s9.16699 48.167 27.5 66.5s40.5 27.5 66.5 27.5s48.333 -9.16699 67 -27.5s28 -40.5 28 -66.5s-9.33301 -48 -28 -66s-41 -27 -67 -27v-2zM342 51c-26 0 -48.333 9.16699 -67 27.5s-28 40.5 -28 66.5
s9.33301 48.333 28 67s41 28 67 28s48.167 -9.33301 66.5 -28s27.5 -41 27.5 -67s-9.16699 -48.167 -27.5 -66.5s-40.5 -27.5 -66.5 -27.5zM75 37l255 441l42 -25l-255 -441zM121 417c-12 0 -22.666 -4.33203 -31.999 -12.999s-14 -19.334 -14 -32.001
c0 -12 4.66699 -22.833 14 -32.5s20 -14.5 32 -14.5c13.333 0 24.166 4.83301 32.499 14.5s12.5 20.5 12.5 32.5s-4.5 22.5 -13.5 31.5s-19.5 13.5 -31.5 13.5zM342.001 190.001c-12 0 -22.834 -4.16797 -32.501 -12.501s-14.5 -19.166 -14.5 -32.499
c0 -12 4.83301 -22.667 14.5 -32s20.5 -14 32.5 -14c12.667 0 23.334 4.66699 32.001 14s13 20 13 32s-4.5 22.333 -13.5 31s-19.5 13 -31.5 13v1z" />
    <glyph glyph-name="ampersand" unicode="&#x26;" horiz-adv-x="654" 
d="M77 157c-15.333 -30.667 -24 -63.332 -26 -97.999v-11c0 -38.667 8.66699 -74.334 26 -107.001c-11.333 15.333 -20 32 -26 50s-9 36.667 -9 56v10c1.33301 18 5 35.333 11 52s14 32.667 24 48zM181 349.002c-27.333 29.333 -42 64.667 -44 106v7
c0 19.333 3.5 37.5 10.5 54.5s16.5 31.833 28.5 44.5c-8.66699 -13.333 -15.334 -28.5 -20.001 -45.5s-7 -34.833 -7 -53.5v-8c0.666992 -19.333 3.83398 -37.833 9.50098 -55.5s13.167 -34.167 22.5 -49.5zM627 370.003l-24.001 -7.99414c6 -15.333 9 -30.666 9 -45.999
c0 -18 -3.66699 -35.5 -11 -52.5s-18.333 -32.167 -33 -45.5c-12.667 -12 -27.167 -21.833 -43.5 -29.5s-33.333 -14.334 -51 -20.001s-35.334 -10.667 -53.001 -15s-34.167 -8.83301 -49.5 -13.5c-10.667 -3.33301 -21.667 -8.33301 -33 -15s-22 -14.5 -32 -23.5
s-18.833 -19 -26.5 -30s-13.5 -22.167 -17.5 -33.5l24 -8c6.66699 20 19.167 37.833 37.5 53.5s36.833 26.5 55.5 32.5c8 2.66699 16.333 5.16699 25 7.5l27 7.5c16.667 -14.667 29.834 -31.667 39.501 -51s14.5 -40 14.5 -62v-7c-1.33301 -22.667 -7.5 -44.167 -18.5 -64.5
s-25.5 -38 -43.5 -53s-38.667 -27 -62 -36s-48 -13.5 -74 -13.5h-2h-9c-2.66699 0 -5.66699 0.333008 -9 1c-27.333 2 -52.666 8.5 -75.999 19.5s-43.666 25.667 -60.999 44s-30.833 39.5 -40.5 63.5s-14.5 49.667 -14.5 77v9c0.666992 26 6 50.5 16 73.5
s23.167 43.667 39.5 62s35.166 33.833 56.499 46.5s44.333 21.667 69 27c6.66699 1.33301 13.167 2.33301 19.5 3s13.166 1.33398 20.499 2.00098c11.333 0 21 1 29 3l-4 24c-8 -2 -16 -3 -24 -3c-16.667 1.33301 -32.334 6.5 -47.001 15.5s-27.5 20.667 -38.5 35
s-20 30.666 -27 48.999s-10.833 37.833 -11.5 58.5v6c0 18.667 2.5 36.167 7.5 52.5s12.167 30.833 21.5 43.5s20.166 22.667 32.499 30s26.166 11.666 41.499 12.999l20.5 -2c7 -0.666992 13.5 -2.33398 19.5 -5.00098l10 24c-10 3.33301 -19.667 5.66602 -29 6.99902
s-19 2 -29 2c-22 0 -42.5 -4.16699 -61.5 -12.5s-35.333 -19.833 -49 -34.5s-24.5 -32 -32.5 -52s-12 -41.333 -12 -64v-9c1.33301 -38 12.666 -72 33.999 -102s48 -51.667 80 -65c-28.667 -7.33301 -55.5 -18.333 -80.5 -33s-46.667 -31.834 -65 -51.501
s-33.166 -41.667 -44.499 -66s-17.666 -49.833 -18.999 -76.5v-13c0 -34.667 7.66699 -66 23 -94s35.5 -51.833 60.5 -71.5s53.333 -34.834 85 -45.501s63.834 -16 96.501 -16c26.667 0 53.334 4.5 80.001 13.5s50.5 21.833 71.5 38.5s38.333 36.667 52 60
s21.167 49.333 22.5 78v10c0 46.667 -16.667 86.667 -50 120c23.333 7.33301 45.833 15.5 67.5 24.5s40.834 21.167 57.501 36.5c17.333 15.333 30.333 33.5 39 54.5s13 42.167 13 63.5c0 17.333 -3 34.666 -9 51.999z" />
    <glyph glyph-name="quotesingle" unicode="'" horiz-adv-x="133" 
d="M60 835l-10.5 64.501c-3 19 -8.16699 44.167 -15.5 75.5h65l-8 -44.5c-2 -11.667 -4 -22.167 -6 -31.5l-6 -28.5c-2 -9.66699 -4 -20.834 -6 -33.501z" />
    <glyph glyph-name="parenleft" unicode="(" horiz-adv-x="360" 
d="M351 -308c-38 3.33301 -73.332 17.666 -105.999 42.999s-61 58.666 -85 99.999s-42.833 89 -56.5 143s-20.5 111.333 -20.5 172s7 118 21 172s33 101.667 57 143s52.333 74.666 85 99.999s67.667 39.666 105 42.999l-3 24c-46.667 -2.66699 -90.667 -17.167 -132 -43.5
s-77.333 -61.166 -108 -104.499s-54.834 -93.666 -72.501 -150.999s-26.5 -118.333 -26.5 -183s9 -125.667 27 -183s42.333 -107.666 73 -150.999s66.667 -78.166 108 -104.499s85.333 -40.833 132 -43.5zM163.001 513c-32 -44 -57.5 -97.3311 -76.5 -159.998
s-28.5 -130.334 -28.5 -203.001s9.5 -140.334 28.5 -203.001s44.5 -116 76.5 -160c-39.333 42 -70.666 94.5 -93.999 157.5s-35 131.5 -35 205.5s11.667 142.5 35 205.5s54.666 115.5 93.999 157.5z" />
    <glyph glyph-name="parenright" unicode=")" horiz-adv-x="363" 
d="M6 -308c37.333 3.33301 72.332 17.666 104.999 42.999s61 58.666 85 99.999s42.833 89 56.5 143s20.5 111.333 20.5 172s-7 118 -21 172s-33 101.667 -57 143s-52.333 74.666 -85 99.999s-67.667 39.666 -105 42.999l3 24c46.667 -2.66699 90.667 -17.167 132 -43.5
s77.333 -61.166 108 -104.499s54.834 -93.666 72.501 -150.999s26.5 -118.333 26.5 -183s-9 -125.667 -27 -183s-42.333 -107.666 -73 -150.999s-66.667 -78.166 -108 -104.499s-85.333 -40.833 -132 -43.5zM192.999 513c32 -44 57.5 -97.3311 76.5 -159.998
s28.5 -130.334 28.5 -203.001s-9.5 -140.334 -28.5 -203.001s-44.5 -116 -76.5 -160c39.333 42 70.666 94.5 93.999 157.5s35 131.5 35 205.5s-11.667 142.5 -35 205.5s-54.666 115.5 -93.999 157.5z" />
    <glyph glyph-name="asterisk" unicode="*" horiz-adv-x="282" 
d="M216 691c-6 4 -9.99805 7.66797 -11.998 11.001c-2 2.66699 -4.33301 5.33398 -7 8.00098s-5 6 -7 10c-4.66699 4.66699 -9.83398 9.5 -15.501 14.5l-26.5 22.5c1.33301 -12 2.16602 -20.167 2.49902 -24.5s1.16602 -8.5 2.49902 -12.5
c0.666992 -3.33301 1.5 -6.5 2.5 -9.5s2.16699 -5.83301 3.5 -8.5l7 -21c2 -6 3 -11.667 3 -17c0 -10 -2.66699 -18 -8 -24s-12 -9 -20 -9s-14.833 3 -20.5 9s-8.5 14 -8.5 24c0 7.33301 1 13 3 17c1.33301 2.66699 2.5 5.83398 3.5 9.50098s1.83301 7.5 2.5 11.5
c2 6 4 12.667 6 20s5 19 9 35c-14 -10.667 -23.667 -18.5 -29 -23.5s-10 -10.167 -14 -15.5c-5.33301 -4.66699 -10 -10 -14 -16c-2.66699 -3.33301 -7 -7 -13 -11c-8 -4.66699 -16 -6 -24 -4s-14 6.33301 -18 13c-4 7.33301 -5 14.666 -3 21.999s7 13.666 15 18.999
c6 2.66699 12.167 4.5 18.5 5.5s13.166 2.5 20.499 4.5c6 1.33301 12.667 3 20 5s18 6 32 12c-14 6 -25 10 -33 12s-14.333 4 -19 6l-23 4c-6 1.33301 -11.333 3.33301 -16 6c-8 5.33301 -13 11.666 -15 18.999s-1 14.666 3 21.999c4 6 10 10.167 18 12.5
s16 1.16602 24 -3.50098c4.66699 -4 9 -8.5 13 -13.5s8.66699 -10.167 14 -15.5c4 -4.66699 8.66699 -9.5 14 -14.5s15 -13.167 29 -24.5l-9 36c-2 8 -4 15 -6 21c-0.666992 4 -1.5 7.5 -2.5 10.5s-2.16699 6.16699 -3.5 9.5c-2.66699 6 -4 11.333 -4 16c0 10 3 18 9 24
s13 9 21 9s14.667 -3 20 -9s8 -14 8 -24c0 -4.66699 -1 -10 -3 -16l-7 -21c-1.33301 -3.33301 -2.5 -6.5 -3.5 -9.5s-1.83301 -5.83301 -2.5 -8.5c-1.33301 -4 -2.16602 -8.33301 -2.49902 -13s-1.16602 -13 -2.49902 -25c9.33301 8 16 13.5 20 16.5s7 5.5 9 7.5l27 32
c4.66699 4.66699 8.66699 8 12 10c8.66699 5.33301 16.834 7 24.501 5s13.5 -6 17.5 -12c10 -17.333 6 -31.333 -12 -42c-6 -3.33301 -12.333 -5.5 -19 -6.5s-13.334 -2.5 -20.001 -4.5c-5.33301 -0.666992 -12 -2 -20 -4s-19.333 -6.66699 -34 -14
c14.667 -4.66699 26 -7.83398 34 -9.50098s14.667 -3.5 20 -5.5l22 -4c6 -2 11.667 -4 17 -6c8 -5.33301 13 -11.666 15 -18.999s1 -14.666 -3 -21.999c-4 -6 -10 -10.167 -18 -12.5s-16 -1.16602 -24 3.50098z" />
    <glyph glyph-name="plus" unicode="+" horiz-adv-x="375" 
d="M210 153h-48v82h-81v48h81v84h48v-82h84v-48h-84v-84z" />
    <glyph glyph-name="comma" unicode="," horiz-adv-x="144" 
d="M111 21c-9.33301 -23.333 -25.332 -40 -47.999 -50l-6 17c20.667 8.66699 36 30 46 64c-8.66699 -4.66699 -14.834 -7.5 -18.501 -8.5s-6.83398 -1.5 -9.50098 -1.5c-12 0 -22.333 4.16699 -31 12.5s-13 18.166 -13 29.499c0 10.667 4.33301 20.334 13 29.001
s18.334 13 29.001 13c9.33301 0 17.5 -3 24.5 -9s11.833 -13.667 14.5 -23c9.33301 -26.667 9 -51 -1 -73z" />
    <glyph glyph-name="hyphen" unicode="-" horiz-adv-x="195" 
d="M39 267h117v-48h-116z" />
    <glyph glyph-name="period" unicode="." horiz-adv-x="144" 
d="M72 42c-12 0 -22 4 -30 12s-12 18 -12 30s4 22 12 30s18 12 30 12s22 -4 30 -12s12 -18 12 -30s-4 -21.833 -12 -29.5s-18 -11.5 -30 -11.5v-1z" />
    <glyph glyph-name="slash" unicode="/" horiz-adv-x="252" 
d="M31 -66l228 609h-39l-227 -609h38z" />
    <glyph glyph-name="zero" unicode="0" 
d="M225 51c-23.333 0 -45.165 4.50195 -65.498 13.502s-38 21 -53 36s-27 32.667 -36 53s-13.5 42.166 -13.5 65.499c0 24 4.5 46.167 13.5 66.5s21 38 36 53s32.5 27 52.5 36s41.333 13.5 64 13.5c23.333 0 45.166 -4.5 65.499 -13.5s38.333 -21.167 54 -36.5
s28 -33.333 37 -54s13.5 -42.334 13.5 -65.001c0 -23.333 -4.5 -45 -13.5 -65s-21 -37.5 -36 -52.5s-32.833 -27 -53.5 -36s-42.334 -13.5 -65.001 -13.5v-1zM225.001 340.002c-33.333 0 -61.666 -12 -84.999 -36s-35 -52.333 -35 -85c0 -16 3.16699 -31.333 9.5 -46
s14.833 -27.5 25.5 -38.5s23.167 -19.667 37.5 -26s29.5 -9.5 45.5 -9.5c17.333 0 33.166 3.16699 47.499 9.5s27 15 38 26s19.5 23.833 25.5 38.5s9 30 9 46c0 32.667 -11.5 61 -34.5 85s-50.833 36 -83.5 36z" />
    <glyph glyph-name="one" unicode="1" horiz-adv-x="285" 
d="M141 336h-60v51h108v-335h-48v284z" />
    <glyph glyph-name="two" unicode="2" 
d="M264 223c10.667 13.333 17.832 28.6689 21.499 46.002s-1.5 33 -15.5 47c-11.333 12 -25.166 18.833 -41.499 20.5s-31.5 -2.5 -45.5 -12.5l-33 36c22.667 18.667 49 27 79 25s55.667 -14 77 -36c20.667 -22.667 30 -48.834 28 -78.501s-13 -55.834 -33 -78.501l-79 -92
h121v-48h-228z" />
    <glyph glyph-name="three" unicode="3" 
d="M267 -120c-23.333 -6 -46.168 -7.33008 -68.501 -3.99707s-43.333 10.333 -63 21s-36.667 24.667 -51 42s-25.166 37.666 -32.499 60.999l47 13c6 -16 14.167 -30.167 24.5 -42.5s22.833 -22.5 37.5 -30.5s30 -13.333 46 -16s32.333 -1.33398 49 3.99902
c16 4 30.833 11.5 44.5 22.5s24.5 23.5 32.5 37.5s13.167 29.167 15.5 45.5s1.5 33.166 -2.5 50.499c-8 28 -23 50.667 -45 68s-47.333 26 -76 26h-66l87 161h-134v51h227l-95 -162c38 -8 70.333 -23.5 97 -46.5s44 -51.167 52 -84.5c6 -24 7.16699 -47.5 3.5 -70.5
s-11 -44.167 -22 -63.5s-25.667 -36.5 -44 -51.5s-39.5 -25.5 -63.5 -31.5z" />
    <glyph glyph-name="four" unicode="4" 
d="M331 -132h-48v183h-255l252 438l42 -26l-210 -364h170v117h48v-116h97v-48h-96v-184z" />
    <glyph glyph-name="five" unicode="5" 
d="M268 -123c-22.667 -6 -45.334 -7.33008 -68.001 -3.99707s-43.667 10.333 -63 21s-36.5 24.667 -51.5 42s-26.167 37.666 -33.5 60.999l48 12c10 -32 30 -56.333 60 -73s61.667 -20.334 95 -11.001c16.667 4 31.834 11.5 45.501 22.5s24.5 23.5 32.5 37.5
s13 29.167 15 45.5s1 33.166 -3 50.499c-8 28 -23 50.667 -45 68s-47.667 26 -77 26h-73l61 212h159v-50h-126l-28 -111c44 0 81.667 -12.5 113 -37.5s52 -56.5 62 -94.5c7.33301 -24 9.16602 -47.5 5.49902 -70.5s-11 -44.167 -22 -63.5s-25.667 -36.5 -44 -51.5
s-39.166 -25.5 -62.499 -31.5z" />
    <glyph glyph-name="six" unicode="6" 
d="M141 75c-20 12 -36.5 26.667 -49.5 44s-22.5 36.5 -28.5 57.5s-7.83301 42.5 -5.5 64.5s9.5 43 21.5 63l195 338l42 -26l-136 -234c52.667 9.33301 96 4 130 -16c20 -11.333 36.5 -26 49.5 -44s22.333 -37.5 28 -58.5s7.16699 -42.667 4.5 -65s-10 -43.5 -22 -63.5
s-26.667 -36.5 -44 -49.5s-36.5 -22.333 -57.5 -28s-42.5 -7.16699 -64.5 -4.5s-43 10 -63 22zM195 334c-16 -4 -30.3311 -10.999 -42.998 -20.999s-22.667 -21.5 -30 -34.5s-12.333 -27.167 -15 -42.5s-1.33398 -31 3.99902 -47c4 -16 11 -30.333 21 -43
s21.5 -22.667 34.5 -30s27.167 -12.333 42.5 -15s31 -1.33398 47 3.99902c16 4 30.333 11 43 21s22.667 21.5 30 34.5s12 27.167 14 42.5s1 31 -3 47s-11 30.333 -21 43s-21.667 22.667 -35 30s-27.833 12 -43.5 14s-30.834 1 -45.501 -3z" />
    <glyph glyph-name="seven" unicode="7" 
d="M46 -131l270 467h-250v51h336l-314 -543z" />
    <glyph glyph-name="eight" unicode="8" 
d="M226 28c-24.667 0 -47.833 4.83203 -69.5 14.499s-40.5 22.5 -56.5 38.5s-28.667 34.667 -38 56s-14 44.666 -14 69.999c0 30 7.66699 58.167 23 84.5s39 49.5 71 69.5c2 2 3 3.66699 3 5c-0.666992 0.666992 -2 1.33398 -4 2.00098s-4 2 -6 4
c-10 12 -18 25.167 -24 39.5s-9 30.166 -9 47.499c0 32.667 12 61.334 36 86.001s53 37 87 37s63 -12 87 -36s36 -53 36 -87c0 -35.333 -14 -67 -42 -95c30 -16.667 53.5 -39 70.5 -67s25.5 -58 25.5 -90c0 -25.333 -4.83301 -48.666 -14.5 -69.999s-22.167 -40 -37.5 -56
s-33.833 -28.5 -55.5 -37.5s-44.5 -13.5 -68.5 -13.5v-2zM279.001 510.999c-15.333 15.333 -33.001 23.001 -53.001 23.001c-20.667 0 -38.5 -7.33301 -53.5 -22s-22.5 -32.334 -22.5 -53.001c0 -21.333 8 -39 24 -53c12.667 -16 29.667 -24 51 -24
c20.667 0 38.334 7.83301 53.001 23.5s22 33.5 22 53.5c0 20.667 -7 38 -21 52zM226 336c-18 0 -34.667 -3.5 -50 -10.5s-29 -16.5 -41 -28.5s-21.333 -25.833 -28 -41.5s-10 -31.834 -10 -48.501c0 -18 3.33301 -34.833 10 -50.5s15.667 -29.167 27 -40.5
s24.833 -20.5 40.5 -27.5s32.5 -10.5 50.5 -10.5s34.667 3.16699 50 9.5s28.833 15.5 40.5 27.5s21 25.833 28 41.5s10.5 32.5 10.5 50.5c0 16.667 -3.5 32.834 -10.5 48.501s-16.333 29.167 -28 40.5s-25.167 20.5 -40.5 27.5s-32 10.5 -50 10.5z" />
    <glyph glyph-name="nine" unicode="9" 
d="M160 -134l110 188.001c-26 -4 -49.5 -4.83301 -70.5 -2.5s-40.5 9.16602 -58.5 20.499c-20 12 -36.833 26.667 -50.5 44s-23.167 36.5 -28.5 57.5s-6.83301 42.5 -4.5 64.5s9.5 43 21.5 63s26.833 36.5 44.5 49.5s37 22.5 58 28.5s42.667 7.83301 65 5.5
s43.5 -9.5 63.5 -21.5c20 -11.333 36.5 -26 49.5 -44s22.333 -37.5 28 -58.5s7.16699 -42.5 4.5 -64.5s-10 -43 -22 -63l-168 -292zM195 333.001c-16 -4 -30.333 -10.999 -43 -20.999s-22.667 -21.5 -30 -34.5s-12.333 -27.333 -15 -43s-1.33398 -31.5 3.99902 -47.5
c4 -14.667 11 -28.334 21 -41.001s21.667 -23 35 -31s27.833 -13.167 43.5 -15.5s30.834 -1.5 45.501 2.5c16 4 30.333 11 43 21s22.667 21.5 30 34.5s12 27.5 14 43.5s1 32 -3 48s-11 30.167 -21 42.5s-21.5 22.333 -34.5 30s-27.167 12.5 -42.5 14.5s-31 1 -47 -3z" />
    <glyph glyph-name="colon" unicode=":" horiz-adv-x="144" 
d="M73 193c-12 0 -22 4 -30 12s-12 18 -12 30s4 22 12 30s17.667 12 29 12c12 0 22 -4 30 -12s12 -18 12 -30s-4 -21.667 -12 -29s-17.667 -11 -29 -11v-2zM72 42c-12 0 -22 4 -30 12s-12 18 -12 30s4 22 12 30s17.333 12 28 12c12 0 22 -4 30 -12s12 -18 12 -30
s-4 -22 -12 -30s-18 -12 -30 -12h2z" />
    <glyph glyph-name="semicolon" unicode=";" horiz-adv-x="144" 
d="M73 193c-12 0 -22 4 -30 12s-12 18 -12 30s4 22 12 30s18 12 30 12s22 -4 30 -12s12 -18 12 -30s-4 -21.667 -12 -29s-18 -11 -30 -11v-2zM109 21c-8.66699 -22 -24.665 -38.667 -47.998 -50l-6 17c20 8.66699 35 30 45 64c-8.66699 -4.66699 -14.834 -7.5 -18.501 -8.5
s-6.83398 -1.5 -9.50098 -1.5c-12 0 -22.333 4.16699 -31 12.5s-13 18.166 -13 29.499c0 10.667 4.33301 20.334 13 29.001s19 13 31 13c8.66699 0 16.5 -3 23.5 -9s12.167 -13.667 15.5 -23c8.66699 -24.667 8 -49 -2 -73z" />
    <glyph glyph-name="less" unicode="&#x3c;" horiz-adv-x="526" 
d="M43 346l440 231v-51l-396 -207l396 -207v-51l-438 231z" />
    <glyph glyph-name="equal" unicode="=" horiz-adv-x="375" 
d="M81 345h213v-48h-213v48zM81 225h213v-50h-213v50z" />
    <glyph glyph-name="greater" unicode="&#x3e;" horiz-adv-x="526" 
d="M478 292l-439 -231v51l396 207l-396 207v51l439 -231v-54z" />
    <glyph glyph-name="question" unicode="?" horiz-adv-x="307" 
d="M232 337l-23.9971 -29.002c-8 -9.33301 -15 -19.666 -21 -30.999c-4.66699 -10 -8.83398 -20.667 -12.501 -32s-5.5 -24 -5.5 -38v-36h-49v36c0 16.667 2 32.5 6 47.5s9.33301 29.167 16 42.5c11.333 20.667 25.5 39.5 42.5 56.5s30.833 36.167 41.5 57.5
c11.333 18.667 14.666 37.834 9.99902 57.501s-16 35.834 -34 48.501c-20 14 -41.667 18.5 -65 13.5s-42 -16.833 -56 -35.5l-6 -11.5c-2 -3.66699 -3.66699 -7.83398 -5 -12.501l-48 10c5.33301 16 12 29.667 20 41c10 14.667 22.5 26.834 37.5 36.501s31 16 48 19
s34.5 2.66699 52.5 -1s34.333 -10.5 49 -20.5c26 -16.667 43.5 -40.334 52.5 -71.001s6.5 -60.334 -7.5 -89.001c-4.66699 -11.333 -10.834 -21.666 -18.501 -30.999zM145.003 41.998c-12 0 -22 4.16699 -30 12.5s-12 18.166 -12 29.499c0 10.667 4 20.334 12 29.001
s18 13 30 13c11.333 0 21.166 -4.33301 29.499 -13s12.5 -18.334 12.5 -29.001c0 -11.333 -4.16699 -21.166 -12.5 -29.499s-18.166 -12.5 -29.499 -12.5z" />
    <glyph glyph-name="at" unicode="@" horiz-adv-x="597" 
d="M543 211l-287 0.000976562c-26 0 -48 9 -66 27s-27 40 -27 66c0 25.333 9 46.666 27 63.999s40 26 66 26h18l-33 60h54l113 -195h100c2 11.333 3.5 21 4.5 29s1.5 16 1.5 24c0 30 -5.66699 58 -17 84s-26.833 49 -46.5 69s-42.5 35.667 -68.5 47s-54 17 -84 17
s-58 -5.66699 -84 -17s-49 -27 -69 -47s-35.667 -43 -47 -69s-17 -54 -17 -84s5.66699 -58 17 -84s27 -48.833 47 -68.5s43 -35.167 69 -46.5s54 -17 84 -17c49.333 0 93.333 15.333 132 46l32 -37c-47.333 -38 -102 -57 -164 -57c-36.667 0 -71 7 -103 21s-60 33 -84 57
s-43 52 -57 84s-21 66 -21 102c0 36.667 7 71 21 103s33 60 57 84s52 43 84 57s66.333 21 103 21c36 0 70.333 -7 103 -21s61 -33 85 -57s43 -52.167 57 -84.5s21 -66.5 21 -102.5c0 -27.333 -5 -55 -15 -83zM256 348.001c-10.667 0 -20.5 -4.5 -29.5 -13.5
s-13.5 -19.167 -13.5 -30.5c0 -12 4.16699 -22.5 12.5 -31.5s18.5 -13.5 30.5 -13.5h96l-49 89h-47z" />
    <glyph glyph-name="A" unicode="A" horiz-adv-x="929" 
d="M919 16c-20.667 -22 -44.666 -39.834 -71.999 -53.501s-56 -22.5 -86 -26.5l47 -117h-84l-48 122l-453 53c-4 0.666992 -8 1 -12 1h-11c-10 -28.667 -18.667 -57 -26 -85l-25 -91h-52l69 174c-26 -4 -50.5 -11.833 -73.5 -23.5s-43.5 -27.167 -61.5 -46.5l-21 22
c22 23.333 47.167 41.666 75.5 54.999s59.166 21.333 92.499 24l4 12l228 580l-19 49l37 111l322 -812c28 2.66699 54.833 10.334 80.5 23.001s48.167 29.334 67.5 50.001l21 -21v0zM430.001 684.999l-6 -19l321 -817h17zM427.001 573.999l-215.999 -550
c3.33301 0 6.16602 -0.166992 8.49902 -0.5s4.83301 -0.5 7.5 -0.5l437 -52z" />
    <glyph glyph-name="B" unicode="B" horiz-adv-x="373" 
d="M200 331c21.333 20 38 44.6689 50 74.002s18 60.666 18 93.999c0 34 -6 65.333 -18 94s-28.667 53 -50 73c14 -21.333 25 -46.333 33 -75s12 -59.334 12 -92.001s-4 -63.167 -12 -91.5s-19 -53.833 -33 -76.5zM349 50.002c0 -30.667 -6.83301 -60.3311 -20.5 -88.998
s-32.167 -53.334 -55.5 -74.001s-50.833 -37.167 -82.5 -49.5s-65.5 -18.5 -101.5 -18.5h-65v926h60c28.667 0 56 -6.33301 82 -19s48.667 -30.167 68 -52.5s34.833 -48.333 46.5 -78s17.5 -61.834 17.5 -96.501c0 -25.333 -3.33301 -49.833 -10 -73.5
s-16 -45.334 -28 -65.001s-26 -37 -42 -52s-33.333 -27.5 -52 -37.5c26 -7.33301 50.167 -18.166 72.5 -32.499s41.833 -31 58.5 -50s29.5 -40.333 38.5 -64s13.5 -48.5 13.5 -74.5zM100 284.005c16.667 3.33301 32 11.502 46 24.502s26 29 36 48s18 40.667 24 65
s9 50.166 9 77.499s-3 53 -9 77s-14 45.667 -24 65s-22 35.166 -36 47.499s-29.333 20.5 -46 24.5v-429zM71 715.007h-17v-866h16zM100 -149.993c22 2.66699 43.001 9.5 63.001 20.5s37.667 25.5 53 43.5s27.166 38.667 35.499 62s12.5 48 12.5 74
c0 26.667 -4.16699 51.667 -12.5 75s-20 44 -35 62s-32.5 32.5 -52.5 43.5s-41 17.833 -63 20.5v-401h-1zM294.001 50.0068c0 -28 -4.16797 -54.333 -12.501 -79s-20.166 -47 -35.499 -67c22.667 18.667 40.5 40.5 53.5 65.5s19.5 51.833 19.5 80.5
c0 30 -6.5 57.5 -19.5 82.5s-31.167 46.833 -54.5 65.5c15.333 -20 27.333 -42.667 36 -68s13 -52 13 -80z" />
    <glyph glyph-name="C" unicode="C" horiz-adv-x="863" 
d="M844 438c0 -36.667 -6.49902 -69.998 -19.499 -99.998s-30.667 -55.833 -53 -77.5s-48.833 -38.334 -79.5 -50.001s-63.667 -17.5 -99 -17.5h-3h-2c-20.667 0 -40.667 3 -60 9s-37 14.5 -53 25.5s-30.167 23.667 -42.5 38s-21.833 30.166 -28.5 47.499
c-6 18 -9.66699 36.333 -11 55s0.5 37 5.5 55s12.833 35 23.5 51s24.667 30 42 42l17 -24c-28.667 -20 -46.334 -45.833 -53.001 -77.5s-5 -62.167 5 -91.5c10.667 -30 30.5 -54.167 59.5 -72.5s61.5 -27.5 97.5 -27.5c28 0 54 5.16699 78 15.5s44.833 25 62.5 44
s31.5 41.667 41.5 68s15 55.5 15 87.5c0 37.333 -6.33301 71.666 -19 102.999s-30 58.666 -52 81.999s-48 42.333 -78 57s-62 24.667 -96 30c-10.667 2 -21.5 3.33301 -32.5 4s-22.167 1 -33.5 1c-54.667 0 -104.834 -11.833 -150.501 -35.5s-85.167 -55.167 -118.5 -94.5
s-59.5 -85.666 -78.5 -138.999s-29.167 -109.666 -30.5 -168.999c-0.666992 -60 7.5 -116.833 24.5 -170.5s41 -100.167 72 -139.5s68.333 -70.833 112 -94.5s91.834 -35.5 144.501 -35.5c70.667 0 136.5 17 197.5 51s114.5 84 160.5 150l24 -16
c-47.333 -70.667 -103.333 -123.834 -168 -159.501s-134.334 -54.167 -209.001 -55.5h-11c-64 0 -122.167 12.167 -174.5 36.5s-97.5 57.833 -135.5 100.5s-67.167 92.667 -87.5 150s-29.833 118.333 -28.5 183c2 64.667 14.333 125.5 37 182.5s54 106.5 94 148.5
s87.833 75.333 143.5 100s116.5 37 182.5 37c26.667 0 53.334 -2.33301 80.001 -7c40 -7.33301 77.5 -19.166 112.5 -35.499s65.5 -37.333 91.5 -63s46.5 -55.5 61.5 -89.5s22.5 -71.333 22.5 -112zM174.001 592.002c-38.667 -41.333 -69 -88.668 -91 -142.001
s-33.667 -111 -35 -173c-1.33301 -64.667 8.5 -124.667 29.5 -180s51.167 -103.333 90.5 -144c-32.667 42.667 -57.667 91.5 -75 146.5s-25 114.167 -23 177.5c1.33301 60 11 116.833 29 170.5s43 101.834 75 144.501z" />
    <glyph glyph-name="D" unicode="D" horiz-adv-x="515" 
d="M73 716h-19v-867h19v867zM79 -179c-8.66699 -1.33301 -18.332 -1.99707 -28.999 -1.99707h-26v926h41c59.333 0 114.666 -12.333 165.999 -37s96.333 -58 135 -100s69.167 -91 91.5 -147s33.5 -115.333 33.5 -178c0 -61.333 -10.833 -118.833 -32.5 -172.5
s-51.167 -100.834 -88.5 -141.501s-81 -73.834 -131 -99.501s-103.333 -41.834 -160 -48.501zM449.002 283.003c0 -49.333 -6.16699 -96.166 -18.5 -140.499s-29.833 -85.5 -52.5 -123.5c25.333 38 45.5 79.167 60.5 123.5s22.5 91.166 22.5 140.499
c0 52.667 -8.5 102.667 -25.5 150s-40.167 90.333 -69.5 129c26.667 -38.667 47.167 -81.667 61.5 -129s21.5 -97.333 21.5 -150zM419.002 283.003c0 54 -8.16797 105.333 -24.501 154s-38.5 92 -66.5 130s-61.5 69.667 -100.5 95s-80.5 42 -124.5 50v-860
c44.667 7.33301 86.334 23.833 125.001 49.5s72.167 57.667 100.5 96s50.5 82 66.5 131s24 100.5 24 154.5z" />
    <glyph glyph-name="E" unicode="E" horiz-adv-x="469" 
d="M469 190c-13.333 -16 -29.834 -28.6641 -49.501 -37.9971s-41.167 -13.333 -64.5 -12l-157 8v-299h41c22 0 40.833 0.333008 56.5 1s30 1.66699 43 3s25.667 3.16602 38 5.49902s26.166 5.5 41.499 9.5v-49h-296v335h-10c-18 1.33301 -34.5 -2 -49.5 -10
s-27.833 -18.333 -38.5 -31l-24 19c13.333 16 29.833 28.833 49.5 38.5s40.834 13.5 63.501 11.5h9v563h296v-48c-15.333 3.33301 -29.166 6.16602 -41.499 8.49902s-25 4.33301 -38 6s-27.333 2.66699 -43 3s-34.5 0.5 -56.5 0.5h-41v-539l160 -7
c18 -0.666992 34.5 2.66602 49.5 9.99902s27.5 17.333 37.5 30l24 -19v0zM167.999 715.003h-16v-866h16v866z" />
    <glyph glyph-name="F" unicode="F" horiz-adv-x="469" 
d="M469 190c-13.333 -16 -29.9971 -28.665 -49.9971 -37.998s-41.333 -13.333 -64 -12l-157 8v-329h-76v335h-10c-18.667 1.33301 -35.334 -2 -50.001 -10s-27.334 -18.333 -38.001 -31l-24 19c13.333 16 29.666 28.833 48.999 38.5s40.666 13.5 63.999 11.5h9v563h296v-48
c-15.333 3.33301 -29.166 6.16602 -41.499 8.49902s-25.166 4.33301 -38.499 6s-27.833 2.66699 -43.5 3s-34.167 0.5 -55.5 0.5h-41v-539l160 -7c17.333 -0.666992 33.666 2.66602 48.999 9.99902s28 17.333 38 30l24 -19v0zM168.003 715.002h-16v-866h16v866z" />
    <glyph glyph-name="G" unicode="G" horiz-adv-x="544" 
d="M446 -181c-58 2 -112.834 15.667 -164.501 41s-96.667 58.833 -135 100.5s-68.666 90.334 -90.999 146.001s-33.5 114.5 -33.5 176.5c0 62.667 11 121.5 33 176.5s52.167 103.167 90.5 144.5s83 74.666 134 99.999s105.833 39 164.5 41l1 -14l1 -15
c-49.333 -2 -95.333 -15 -138 -39s-80 -55.5 -112 -94.5s-57.333 -84.167 -76 -135.5s-28 -106 -28 -164s9.33301 -112.833 28 -164.5s44 -97 76 -136s69.333 -70.5 112 -94.5s88.667 -37 138 -39v589h76v-619h-76zM491.999 408h-16v-559h16v559zM120.999 42
c-18 35.333 -32.333 73.1709 -43 113.504s-16 82.833 -16 127.5c0 44 5.33301 86.167 16 126.5s25 78.166 43 113.499c-22 -34 -39 -71.333 -51 -112s-18 -83.334 -18 -128.001s6 -87.334 18 -128.001s29 -78.334 51 -113.001z" />
    <glyph glyph-name="H" unicode="H" horiz-adv-x="618" 
d="M618 190c-14.667 -18 -31.999 -32.332 -51.999 -42.999s-41.333 -17.334 -64 -20.001v-308h-76v308l-235 12v-320h-76v321c-38 -6 -68.333 -23.333 -91 -52l-24 19c29.333 36 67.666 57 114.999 63v575h76v-577l235 -11v588h76v-589c18 3.33301 35.167 9.5 51.5 18.5
s30.5 20.5 42.5 34.5l22 -19v0zM472.001 715.001h-16v-866h16v866zM161.001 715.001h-16v-866h16v866z" />
    <glyph glyph-name="I" unicode="I" horiz-adv-x="169" 
d="M96 833h-29l-24 216h77zM49 -181v930h77v-930h-77zM76 1019l6 -54l6 54h-12zM96 719h-17v-870h17v870z" />
    <glyph glyph-name="J" unicode="J" horiz-adv-x="170" 
d="M-216 -406c40.667 2.66699 78.1689 13.834 112.502 33.501s64.166 45.667 89.499 78s45.166 69.833 59.499 112.5s21.5 88 21.5 136v784h75v-784c0 -64.667 -11 -121.334 -33 -170.001s-50.5 -89.167 -85.5 -121.5s-73.667 -56.5 -116 -72.5s-83.5 -24 -123.5 -24v28v0z
M112.002 708h-15v-754c0 -38.667 -4.33301 -76 -13 -112s-21 -69.333 -37 -100c20.667 30.667 36.667 63.667 48 99s17 73 17 113v754z" />
    <glyph glyph-name="K" unicode="K" horiz-adv-x="875" 
d="M875 -16c-10 -24 -23.3311 -46.168 -39.998 -66.501s-35.834 -37.666 -57.501 -51.999s-45.5 -25.5 -71.5 -33.5s-53.333 -12 -82 -12c-31.333 0 -62.833 4.83301 -94.5 14.5s-62.834 21.334 -93.501 35.001s-60.334 28.167 -89.001 43.5s-56 29 -82 41
c-20.667 10 -43.334 17 -68.001 21v-156h-76v159c-30 -2 -57.667 -10 -83 -24c-4 -1.33301 -8 -3.16602 -12 -5.49902s-8 -4.5 -12 -6.5l-14 27c21.333 11.333 42 23.166 62 35.499s39.667 25.166 59 38.499v702h76v-641c96.667 85.333 175.834 185.5 237.501 300.5
s99.167 239.833 112.5 374.5l29 -3c-7.33301 -72 -21.333 -141.333 -42 -208s-47.167 -130.167 -79.5 -190.5s-70.333 -117 -114 -170s-91.5 -100.833 -143.5 -143.5v-59c15.333 -2.66699 29.5 -5.83398 42.5 -9.50098s25.5 -8.5 37.5 -14.5
c24.667 -12 51.334 -25.667 80.001 -41s57.5 -29.833 86.5 -43.5s58.667 -25 89 -34s60.833 -13.5 91.5 -13.5c51.333 0 97 13.833 137 41.5s68.333 62.834 85 105.501l29 -12v0zM167.002 714.999h-16v-866h16v866z" />
    <glyph glyph-name="L" unicode="L" horiz-adv-x="401" 
d="M18 -181v926h76v-896h40c45.333 0 90.5 1.33301 135.5 4s82.833 7.66699 113.5 15v-49h-365zM64 715h-16v-866h16v866z" />
    <glyph glyph-name="M" unicode="M" horiz-adv-x="683" 
d="M577 -181v830l-217 -282l26 -33l-49 -62l-278 362v-812h-30v977l312 -405l313 406v-981h-77zM624 710l-17 -21v-840h17v861zM347 334c-0.666992 1.33301 -0.665039 1.66699 0.00195312 1s-0.333008 0.666016 -3 3.99902l-18 22.5l-45 58.5l-84.5 110.5l-137.5 178.5v-25
l131.5 -173l82.5 -106l44 -56.5l16.5 -22c2.33301 -3 3.16602 -4.16699 2.49902 -3.5s-0.333984 0.333984 0.999023 -0.999023l10 12v0z" />
    <glyph glyph-name="N" unicode="N" horiz-adv-x="437" 
d="M397 359l-0.000976562 -537h-30v376c0 28 -5 54 -15 78s-23.333 46.167 -40 66.5s-36 39 -58 56s-45.333 32.167 -70 45.5c-22.667 12.667 -43.667 26.167 -63 40.5s-37 30.833 -53 49.5v-712h-30v863v58h30v-55c9.33301 -37.333 27.666 -69.333 54.999 -96
s58.333 -50 93 -70c28.667 -16.667 55.834 -35 81.501 -55s48.834 -41.667 69.501 -65v341h30v-381l1 -2zM366.999 350c-20 30.667 -44.168 57.668 -72.501 81.001s-59.166 45 -92.499 65c-26.667 16 -51.667 33.667 -75 53s-43 41.666 -59 66.999v-35
c16 -22.667 35.333 -43.167 58 -61.5s46.667 -34.833 72 -49.5c36 -20 68.667 -42.5 98 -67.5s53 -54.5 71 -88.5v36z" />
    <glyph glyph-name="O" unicode="O" horiz-adv-x="912" 
d="M883 287c0 -74 -11.168 -140.667 -33.501 -200s-52.833 -109.833 -91.5 -151.5s-84 -73.667 -136 -96s-107.333 -33.5 -166 -33.5s-114 12.5 -166 37.5s-97.333 59.333 -136 103s-69.167 94.5 -91.5 152.5s-33.5 120.333 -33.5 187c0 65.333 11.167 127 33.5 185
s52.833 108.667 91.5 152s84 77.5 136 102.5s107.333 37.5 166 37.5v-30c-47.333 0 -91.333 -11.833 -132 -35.5s-76.5 -55.667 -107.5 -96s-55.167 -87.666 -72.5 -141.999s-26 -112.166 -26 -173.499c0 -62 8.66699 -120.167 26 -174.5s41.5 -101.833 72.5 -142.5
s66.833 -73 107.5 -97s84.334 -36 131.001 -36h1c46.667 0 90.5 11 131.5 33s77 52.333 108 91s55.167 84.667 72.5 138s26 110.666 26 171.999c0 58.667 -5.66699 113 -17 163s-27 93.333 -47 130s-43.667 65.334 -71 86.001s-56.666 31 -87.999 31v2h-3
c-24 0 -46.667 -4 -68 -12s-40.833 -19.833 -58.5 -35.5s-32.5 -34.167 -44.5 -55.5s-20.333 -45 -25 -71l-29 4c6 30.667 15.667 58.167 29 82.5s30 45.166 50 62.499s42.5 30.5 67.5 39.5s51.167 13.5 78.5 13.5h3c4 0 7.5 -0.166992 10.5 -0.5s6.5 -0.5 10.5 -0.5
c36.667 -4.66699 72.5 -17.834 107.5 -39.501s66.167 -50.667 93.5 -87s49.166 -79.5 65.499 -129.5s24.5 -105.333 24.5 -166zM852.999 287c0 68.667 -10.834 129.834 -32.501 183.501s-49.167 97.5 -82.5 131.5c26.667 -40 47.667 -88.167 63 -144.5
s23 -118.833 23 -187.5s-10.167 -131.834 -30.5 -189.501s-48.166 -107.167 -83.499 -148.5c44 38.667 78.833 88 104.5 148s38.5 129 38.5 207zM197.998 -56c-34.667 44 -61.667 95.001 -81 153.001s-29 121 -29 189c0 66.667 9.66699 129 29 187s46.333 108.667 81 152
c-43.333 -40.667 -77.333 -90.334 -102 -149.001s-37 -122 -37 -190c0 -69.333 12.333 -133.333 37 -192s58.667 -108.667 102 -150z" />
    <glyph glyph-name="P" unicode="P" horiz-adv-x="451" 
d="M430 386c0 -41.333 -6.66699 -80.832 -20 -118.499s-31.666 -71.667 -54.999 -102s-51 -56.666 -83 -78.999s-66.333 -39.166 -103 -50.499v-217h-77v204c-4 -0.666992 -8 -1 -12 -1h-12c-22.667 0 -45.334 2.33301 -68.001 7l7 29
c10.667 -2.66699 21 -4.33398 31 -5.00098s20 -1 30 -1h12c4 0 8 0.333008 12 1v692h42c42.667 0 82 -10.333 118 -31s67.167 -47.834 93.5 -81.501s47 -71.834 62 -114.501s22.5 -86.667 22.5 -132zM400 386.001c0 27.333 -2.99902 54.165 -8.99902 80.498
s-14.667 51.833 -26 76.5s-24.833 47.334 -40.5 68.001s-33.5 38.667 -53.5 54c34 -34 60.667 -75 80 -123s29 -99.333 29 -154c0 -42.667 -5.5 -83 -16.5 -121s-26.833 -72.333 -47.5 -103c25.333 30 45.666 63.833 60.999 101.5s23 77.834 23 120.501zM350.001 388
c0 36 -4.33301 70.167 -13 102.5s-21.167 62 -37.5 89s-35.5 51.167 -57.5 72.5s-46.333 38 -73 50v-628c26.667 12 51 28.5 73 49.5s41.167 45 57.5 72s28.833 56.833 37.5 89.5s13 67 13 103zM139.001 713c-4.66699 1.33301 -7.16699 2 -7.5 2h-9.5v-866h17v864z" />
    <glyph glyph-name="Q" unicode="Q" horiz-adv-x="907" 
d="M950 -334c-18 0 -34.999 3.49902 -50.999 10.499s-30.167 16.333 -42.5 28s-22.5 25.167 -30.5 40.5s-12.667 32 -14 50c-10.667 -3.33301 -21.834 -6 -33.501 -8s-23.834 -3 -36.501 -3c-26.667 0 -52 4.16699 -76 12.5s-46 19.833 -66 34.5
c-45.333 -16.667 -93.666 -25 -144.999 -25c-58.667 0 -113.834 12.5 -165.501 37.5s-96.834 59.333 -135.501 103s-69.167 94.5 -91.5 152.5s-33.5 120.333 -33.5 187c0 65.333 11.167 127 33.5 185s52.833 108.667 91.5 152s83.834 77.5 135.501 102.5
s106.834 37.5 165.501 37.5v-30c-47.333 0 -91.333 -11.833 -132 -35.5s-76.334 -55.667 -107.001 -96s-54.667 -87.666 -72 -141.999s-26 -112.166 -26 -173.499c0 -62 8.66699 -120.167 26 -174.5s41.333 -101.833 72 -142.5s66.334 -73 107.001 -97
s84.334 -36 131.001 -36h1c39.333 0 77.333 8 114 24c-20 21.333 -35.667 45.833 -47 73.5s-17 57.167 -17 88.5h30c0 -29.333 5.66699 -56.5 17 -81.5s26 -47.167 44 -66.5c29.333 16.667 56.166 38.167 80.499 64.5s45.333 56.5 63 90.5s31.167 71.5 40.5 112.5
s14 83.833 14 128.5c0 58.667 -5.66699 113 -17 163s-27 93.333 -47 130s-43.667 65.334 -71 86.001s-57 31 -89 31c-52 0 -95.833 -16.167 -131.5 -48.5s-57.834 -73.5 -66.501 -123.5l-29 4c4.66699 30.667 14 58.167 28 82.5s30.833 45.166 50.5 62.499s42 30.5 67 39.5
s50.833 13.5 77.5 13.5c4 0 8.33301 -0.166992 13 -0.5s9 -0.5 13 -0.5c36.667 -4.66699 72.334 -18 107.001 -40s65.667 -51.167 93 -87.5s49.333 -79.333 66 -129s25 -104.834 25 -165.501c0 -54 -6.16699 -104.167 -18.5 -150.5s-29.5 -88 -51.5 -125
s-48.167 -69.5 -78.5 -97.5s-63.833 -51 -100.5 -69c32 -20.667 68 -31 108 -31c13.333 0 27.833 1.83301 43.5 5.5s35.167 10.5 58.5 20.5c-2 -22 -0.5 -41.833 4.5 -59.5s12.5 -32.667 22.5 -45s21.667 -22 35 -29s28 -10.5 44 -10.5v-30v0zM853.001 286.999
c0 68 -10.501 128.5 -31.501 181.5s-48.5 97.167 -82.5 132.5c26 -40 46.667 -88.167 62 -144.5s23 -118.5 23 -186.5c0 -68.667 -10.167 -131.667 -30.5 -189s-48.166 -107 -83.499 -149c44 40 78.833 89.667 104.5 149s38.5 128 38.5 206zM198 -56.001
c-34.667 42.667 -61.666 93.3301 -80.999 151.997s-29 122 -29 190c0 66.667 9.66699 129.334 29 188.001s46 109.334 80 152.001c-42.667 -41.333 -76.334 -91.166 -101.001 -149.499s-37 -121.833 -37 -190.5c0 -69.333 12.333 -133.333 37 -192s58.667 -108.667 102 -150
z" />
    <glyph glyph-name="R" unicode="R" horiz-adv-x="827" 
d="M827 -80c-23.333 -34.667 -55.002 -61.1641 -95.002 -79.4971s-84.667 -24.833 -134 -19.5c-31.333 3.33301 -62.833 11.166 -94.5 23.499s-62.667 26.5 -93 42.5s-60 33 -89 51l-81.5 50c-13.333 8 -28.333 15 -45 21s-33.667 10.667 -51 14v-204h-77v209
c-8 -2 -15.5 -3.5 -22.5 -4.5s-14.167 -2.83301 -21.5 -5.5l-11 -5l-12 29l67 26v677h42c42.667 0 82 -9.83301 118 -29.5s67.167 -45.167 93.5 -76.5s46.833 -67.5 61.5 -108.5s22 -82.5 22 -124.5c0 -37.333 -6 -73 -18 -107s-28.333 -65.333 -49 -94
s-45.667 -54.167 -75 -76.5s-60.666 -40.5 -93.999 -54.5l-24 -9v-12c20.667 -3.33301 40.167 -8.33301 58.5 -15s35.5 -14.667 51.5 -24c25.333 -14 52 -30 80 -48s56.5 -35 85.5 -51s58.667 -30 89 -42s60.833 -19.667 91.5 -23
c43.333 -4.66699 82.833 1.16602 118.5 17.499s63.834 39.166 84.501 68.499l24 -16v0zM373.998 406.003c0 49.333 -10.667 97.167 -32 143.5s-51.333 83.833 -90 112.5c32 -32 57.167 -70 75.5 -114s27.5 -91.333 27.5 -142c0 -34.667 -4.16699 -68.167 -12.5 -100.5
s-20.5 -62.5 -36.5 -90.5c21.333 27.333 38 57 50 89s18 66 18 102zM324.998 406.004c0 33.333 -4.33301 65.333 -13 96s-21.167 59 -37.5 85s-35.5 48.833 -57.5 68.5s-46.333 35.167 -73 46.5v-604c26.667 12 51.167 28.5 73.5 49.5s41.5 44.833 57.5 71.5
s28.333 56 37 88s13 65 13 99zM113.998 713.004c-4.66699 1.33301 -7.16699 2 -7.5 2h-9.5v-866h17v864z" />
    <glyph glyph-name="S" unicode="S" horiz-adv-x="612" 
d="M443 35c0 3.33301 0.168945 6.33496 0.501953 9.00195s0.5 5.66699 0.5 9c0 27.333 -5.16699 51.333 -15.5 72s-24 39 -41 55s-36 30.333 -57 43l-62.5 39l-77 45c-24 14 -45.5 29.167 -64.5 45.5s-34.833 34.833 -47.5 55.5s-21.334 46.334 -26.001 77.001
c2 -38 9.5 -69.167 22.5 -93.5s29.667 -45.333 50 -63s43.666 -33.834 69.999 -48.501l84.5 -48c25.333 -16 48 -31.667 68 -47s36.833 -31.333 50.5 -48s24 -34.834 31 -54.501s10.5 -41.834 10.5 -66.501c2 8 3 14.333 3 19zM590.002 569.002
c0 -54.667 -15.9932 -95.9971 -47.9932 -123.997s-72.667 -42 -122 -42c-19.333 0 -37.166 3.5 -53.499 10.5s-30.5 16 -42.5 27s-21.333 24.333 -28 40s-10 31.834 -10 48.501c0 22 5 43 15 63l27 -15c-7.33301 -16 -11 -31 -11 -45c0 -26 8.5 -48.333 25.5 -67
s39.5 -29.334 67.5 -32.001v1h9c33.333 0 60.166 13.333 80.499 40s30.5 59 30.5 97v1c0 36 -11.333 69.667 -34 101s-53.334 52.666 -92.001 63.999h-1c-32.667 8.66699 -62.334 13 -89.001 13c-18.667 0 -37.334 -1.66699 -56.001 -5s-36 -8 -52 -14
c-40 -16.667 -71.167 -41 -93.5 -73s-33.833 -71 -34.5 -117v-5c0 -37.333 5.33301 -68 16 -92s25.5 -44.833 44.5 -62.5s40.667 -33.5 65 -47.5l78.5 -46l69 -43.5c22.667 -14.333 43 -30.666 61 -48.999s32.667 -38.833 44 -61.5s17 -49.667 17 -81
c0 -3.33301 -0.166992 -6.66602 -0.5 -9.99902s-0.5 -7 -0.5 -11c-2.66699 -30.667 -11.167 -59.334 -25.5 -86.001s-32.333 -49.5 -54 -68.5s-45.834 -34 -72.501 -45s-54.667 -16.5 -84 -16.5c-44 0 -84.667 13 -122 39l17 24c16 -11.333 33 -19.666 51 -24.999
s36 -8 54 -8c38 0 72.667 9.66699 104 29l-2 1c19.333 12 35.666 27 48.999 45s21 42 23 72c0 4 0.333008 7.33301 1 10s1 6 1 10c0 44 -13 80 -39 108s-62.333 56 -109 84l-94.5 56.5c-29.667 17 -55.334 36 -77.001 57s-38.834 46.5 -51.501 76.5s-19 68.333 -19 115
c0 57.333 15.333 107.5 46 150.5s71.334 74.833 122.001 95.5c4 1.33301 7.33301 2.66602 10 3.99902s6 2.66602 10 3.99902v-1c33.333 11.333 68 17 104 17c31.333 0 63.333 -4.66699 96 -14c2.66699 -1.33301 5.16699 -2.33301 7.5 -3s4.5 -1.33398 6.5 -2.00098
c21.333 -7.33301 42 -16.833 62 -28.5s37.667 -25.334 53 -41.001s27.666 -33.5 36.999 -53.5s14 -42.333 14 -67v-2z" />
    <glyph glyph-name="T" unicode="T" horiz-adv-x="480" 
d="M466 697c-15.333 3.33301 -29.001 6.16602 -41.001 8.49902s-24.667 4.33301 -38 6s-27.833 2.66699 -43.5 3s-34.5 0.5 -56.5 0.5h-10v-896h-75v896h-10c-22.667 0 -41.667 -0.166992 -57 -0.5s-29.666 -1.33301 -42.999 -3s-26 -3.66699 -38 -6
s-25.333 -5.16602 -40 -8.49902v48h452v-48v0zM246.999 715h-15v-866h15v866z" />
    <glyph glyph-name="U" unicode="U" horiz-adv-x="462" 
d="M433 22c0 -28 -5.33594 -54.333 -16.0029 -79s-25.167 -46.167 -43.5 -64.5s-39.833 -32.833 -64.5 -43.5s-51 -16 -79 -16s-54.167 5.33301 -78.5 16s-45.666 25.167 -63.999 43.5s-32.666 39.833 -42.999 64.5s-15.5 51 -15.5 79v723h75v-746
c0 -20.667 3.66699 -40.334 11 -59.001s17.333 -35 30 -49s27.834 -24.667 45.501 -32s36.5 -10.333 56.5 -9c22 1.33301 42.333 6.83301 61 16.5s35.167 22.334 49.5 38.001s25.5 33.5 33.5 53.5s12 41.333 12 64v721h30v-721v0zM90.9971 -79
c-11.333 24.667 -17 50.667 -17 78v716h-15v-693c0 -37.333 10.667 -71 32 -101z" />
    <glyph glyph-name="V" unicode="V" horiz-adv-x="600" 
d="M497 456l-105.5 -319.5l-107.5 -322.5h-32l31 96l-276 835h81l236 -714l144 436c15.333 44.667 28 89.667 38 135s21.333 93 34 143h53zM66 715h-17l251 -757l8 25z" />
    <glyph glyph-name="W" unicode="W" horiz-adv-x="956" 
d="M640 -187l-33 -0.000976562l33 98l-161 483l-22 -66l-43 -129l-43 -126l-42.5 -127.5l-44.5 -132.5h-32l32 96l-277 836h81l236 -716l104 307c14 39.333 25.167 79.333 33.5 120s18.166 83.334 29.499 128.001h53l-24 -73l159 -479l135 402
c16.667 50.667 30.834 101.167 42.501 151.5l38.5 159.5h54zM503 463.999l-7 -22l159 -483l9 25zM66 714.999h-17l251 -758l8 24z" />
    <glyph glyph-name="X" unicode="X" horiz-adv-x="568" 
d="M479 -181l-220 435l-46.5 -99.5l-45.5 -98.5l-112 -237h-55l79.5 136c24.333 42 47.833 87 70.5 135l92 198l-230 457h83l192 -375l175 375h54l-36 -58l-29.5 -49.5l-27 -48c-9 -16.333 -17.833 -34.5 -26.5 -54.5h-1l-92 -198l264 -518h-89zM77 715h-16l436 -866h21z
" />
    <glyph glyph-name="Y" unicode="Y" horiz-adv-x="595" 
d="M496 566l-79 -143l-81 -146v-458h-76v455l-260 471h84l238 -434l146 267c14.667 26 27 52.833 37 80.5s21.667 56.5 35 86.5h55zM306 277l-240 438h-16l239 -433l1 -433h16v428z" />
    <glyph glyph-name="Z" unicode="Z" horiz-adv-x="419" 
d="M419 -112c-24.667 -30.667 -57.002 -53.334 -97.002 -68.001s-81 -18.334 -123 -11.001c-29.333 6 -59.666 11.667 -90.999 17s-67.333 8 -108 8l305 881h-77c-21.333 0 -39.833 -0.166992 -55.5 -0.5s-30.167 -1.16602 -43.5 -2.49902s-26 -3.16602 -38 -5.49902
s-25.667 -5.16602 -41 -8.49902v47h350l-308 -887c18.667 -2.66699 37.334 -5.83398 56.001 -9.50098l56 -10.5c36 -6.66699 71.667 -3.66699 107 9s63.333 33 84 61l24 -20v0zM336.998 715l-295 -851c3.33301 0 6.5 -0.166992 9.5 -0.5s6.16699 -0.5 9.5 -0.5l295 852h-19z
" />
    <glyph glyph-name="bracketleft" unicode="[" horiz-adv-x="111" 
d="M51 619v-818h-16v818h16zM104 -224v25h-28v818h28v25h-94v-868h94z" />
    <glyph glyph-name="backslash" unicode="\" horiz-adv-x="252" 
d="M218 -66l-228 609h39l227 -609h-38z" />
    <glyph glyph-name="bracketright" unicode="]" horiz-adv-x="111" 
d="M58 619v-818h16v818h-16zM5 -224v25h28v818h-28v25h94v-868h-94z" />
    <glyph glyph-name="asciicircum" unicode="^" horiz-adv-x="342" 
d="M320 134l-130 237h-38l-130 -237l34 -19l115 210l115 -210z" />
    <glyph glyph-name="underscore" unicode="_" horiz-adv-x="250" 
d="M250 -12v31h-250v-31h250z" />
    <glyph glyph-name="grave" unicode="`" horiz-adv-x="273" 
d="M202 208l7 15l-120 81l-17 -32z" />
    <glyph glyph-name="a" unicode="a" horiz-adv-x="354" 
d="M147 51c-26 0 -48 8.99902 -66 26.999s-27 40 -27 66c0 24.667 9 45.834 27 63.501s39.333 26.5 64 26.5h32l-44 79l42 24l165 -285h-193v-1zM147 186.999c-12 0 -22.334 -4.5 -31.001 -13.5s-13 -18.833 -13 -29.5c0 -12 4.33301 -22.5 13 -31.5
s18.334 -13.5 29.001 -13.5h110l-50 88h-58z" />
    <glyph glyph-name="b" unicode="b" horiz-adv-x="298" 
d="M54 51v567.001h49v-353h72c30 0 55.5 -10.5 76.5 -31.5s31.5 -46.5 31.5 -76.5c0 -28.667 -10.5 -53.334 -31.5 -74.001s-45.833 -31 -74.5 -31zM103 217.001l0.000976562 -118h72c17.333 0 31.666 5.66699 42.999 17s17 25 17 41s-5.66699 30 -17 42s-25 18 -41 18h-74z
" />
    <glyph glyph-name="c" unicode="c" horiz-adv-x="273" 
d="M162 51c-30 0 -55.501 10.5 -76.501 31.5s-31.5 45.833 -31.5 74.5c0 30 10.5 55.5 31.5 76.5s45.833 31.5 74.5 31.5h93v-48h-91c-17.333 0 -31.666 -6 -42.999 -18s-17 -26 -17 -42s5.66699 -29.5 17 -40.5s25 -16.5 41 -16.5h93v-48h-91v-1z" />
    <glyph glyph-name="d" unicode="d" horiz-adv-x="302" 
d="M162 51c-30 0 -55.5 10.5 -76.5 31.5s-31.5 45.833 -31.5 74.5c0 30 10.5 55.333 31.5 76s45.833 31 74.5 31h75v385h48v-597h-121v-1zM162 217c-17.333 0 -31.5 -6 -42.5 -18s-16.5 -26 -16.5 -42c0 -14.667 5.5 -28 16.5 -40s24.5 -18 40.5 -18h75v118h-73z" />
    <glyph glyph-name="e" unicode="e" horiz-adv-x="298" 
d="M159 181l64.0039 0.000976562c-8.66699 14 -17.334 23.5 -26.001 28.5s-17.334 7.5 -26.001 7.5h-11c-16 0 -29.667 -6 -41 -18s-17 -26 -17 -42c0 -14.667 5.66699 -27.834 17 -39.501s24.666 -17.5 39.999 -17.5h42v-49h-41c-28.667 0 -53.5 10.5 -74.5 31.5
s-31.5 45.833 -31.5 74.5c0 30 10.167 55.5 30.5 76.5s45.166 31.5 74.499 31.5h10c30 0 55.5 -10.5 76.5 -31.5s31.5 -45.833 31.5 -74.5v-24h-118v46z" />
    <glyph glyph-name="f" unicode="f" horiz-adv-x="237" 
d="M117 -162h-47.999v376h-39v50h39v277c0 30 10.167 55.5 30.5 76.5s45.166 31.5 74.499 31.5h42v-48h-41c-16 0 -29.667 -6 -41 -18s-17 -26 -17 -42v-276h99v-49h-99v-378z" />
    <glyph glyph-name="g" unicode="g" horiz-adv-x="349" 
d="M283 216c11.333 -22 16.998 -41.6689 16.998 -59.002c0 -34 -15 -63.333 -45 -88c22 -19.333 36 -40 42 -62l-47 -12c-8 20 -21.167 34.833 -39.5 44.5s-37.5 11.5 -57.5 5.5c-21.333 -5.33301 -37.5 -17.666 -48.5 -36.999s-13.833 -39.666 -8.5 -60.999
c4.66699 -20 16 -35.667 34 -47s37 -15 57 -11l14 -48c-33.333 -7.33301 -64.666 -2 -93.999 16s-48.666 43.667 -57.999 77c-8 28.667 -6 56.5 6 83.5s32 49.167 60 66.5c-18.667 22.667 -28 47 -28 73c0 30 10.5 55.5 31.5 76.5s46.5 31.5 76.5 31.5h139v-49h-51v0z
M194.998 215.998c-17.333 0 -31.666 -5.5 -42.999 -16.5s-17 -25.167 -17 -42.5c0 -16.667 5.66699 -30.5 17 -41.5s25.666 -16.5 42.999 -16.5c16 0 29.5 5.66699 40.5 17s16.5 25 16.5 41s-5.5 29.833 -16.5 41.5s-24.5 17.5 -40.5 17.5z" />
    <glyph glyph-name="h" unicode="h" horiz-adv-x="305" 
d="M240 99c0 34.667 -11.333 62.833 -34 84.5s-51 32.5 -85 32.5c-6.66699 0 -12.667 -1 -18 -3v-162h-49v598h49v-384h17c24 0 46.167 -4.16699 66.5 -12.5s38 -20 53 -35s27 -32.5 36 -52.5s13.5 -42 13.5 -66v-47h-49v47z" />
    <glyph glyph-name="i" unicode="i" horiz-adv-x="139" 
d="M75 388h48v-49h-48v49zM75 265h48v-214h-48v214z" />
    <glyph glyph-name="j" unicode="j" horiz-adv-x="129" 
d="M66 388h49v-49h-49v49zM0 -111c18.667 2 34.333 9 47 21s19 28 19 48v307h49v-307c0 -33.333 -11.167 -61 -33.5 -83s-49.5 -34 -81.5 -36v50z" />
    <glyph glyph-name="k" unicode="k" horiz-adv-x="302" 
d="M237 85c0 25.333 -8.33203 45.667 -24.999 61s-36.334 23 -59.001 23h-50v-118h-49v598h49v-433h29c16 0 28.667 5.5 38 16.5s14 23.833 14 38.5v24h50v-24c0 -22 -8 -44.333 -24 -67c24 -12 42.5 -28.333 55.5 -49s19.5 -44 19.5 -70v-33h-48v33z" />
    <glyph glyph-name="l" unicode="l" horiz-adv-x="132" 
d="M67 649h48v-597h-48v597z" />
    <glyph glyph-name="m" unicode="m" horiz-adv-x="427" 
d="M363 220c-41.333 0 -71.001 -12.501 -89.001 -37.501s-27 -53.833 -27 -86.5v-47h-48v171c-40.667 0 -70 -12.667 -88 -38s-27 -54.666 -27 -87.999v-45h-48v45c0 49.333 13.5 91 40.5 125s65.833 51 116.5 51c10 0 19.333 -1.33301 28 -4s17.334 -5 26.001 -7v-31
c35.333 28 72 42 110 42c10 0 19.5 -1.33301 28.5 -4s17.833 -5 26.5 -7v-208h-49v169z" />
    <glyph glyph-name="n" unicode="n" horiz-adv-x="346" 
d="M276 105c-7.33301 16.667 -16 31.833 -26 45.5s-22 25.5 -36 35.5c-16 10.667 -33.167 18.5 -51.5 23.5s-38.5 6.5 -60.5 4.5v-163h-50v204c11.333 2 22.5 4.16699 33.5 6.5s21.833 3.5 32.5 3.5c54 0 106.667 -22.333 158 -67v67h48v-213h-48v53z" />
    <glyph glyph-name="o" unicode="o" horiz-adv-x="324" 
d="M153 51c-30 0 -55.501 10.501 -76.501 31.501s-31.5 45.833 -31.5 74.5c0 30 10.5 55.5 31.5 76.5s45.833 31.5 74.5 31.5h47c28.667 0 53.5 -10.5 74.5 -31.5s31.5 -46.5 31.5 -76.5c0 -28.667 -10.167 -53.334 -30.5 -74.001s-45.166 -31 -74.499 -31zM152.999 217.001
c-17.333 0 -31.501 -6 -42.501 -18s-16.5 -26 -16.5 -42c0 -14.667 5.5 -28 16.5 -40s24.5 -18 40.5 -18h47c16.667 0 30.5 6 41.5 18s16.5 25.333 16.5 40c0 16 -5.66699 30 -17 42s-24.666 18 -39.999 18h-46z" />
    <glyph glyph-name="p" unicode="p" horiz-adv-x="300" 
d="M103 52v-353.999h-49v567h121c30 0 55.5 -10.5 76.5 -31.5s31.5 -46.5 31.5 -76.5c0 -28.667 -10.5 -53.334 -31.5 -74.001s-45.833 -31 -74.5 -31h-74zM103 216.001l0.000976562 -117h72c17.333 0 31.666 5.66699 42.999 17s17 25 17 41
c0 17.333 -5.66699 31.5 -17 42.5s-25 16.5 -41 16.5h-74z" />
    <glyph glyph-name="q" unicode="q" horiz-adv-x="302" 
d="M234 51h-72c-30 0 -55.5 10.5 -76.5 31.5s-31.5 45.833 -31.5 74.5c0 30 10.5 55.5 31.5 76.5s45.833 31.5 74.5 31.5h123v-567h-49v353zM162 216c-17.333 0 -31.667 -5.5 -43 -16.5s-17 -25.167 -17 -42.5c0 -16 5.66699 -29.667 17 -41s25 -17 41 -17h74v117h-72z" />
    <glyph glyph-name="r" unicode="r" horiz-adv-x="315" 
d="M288 213c-9.33301 2.66699 -19 4 -29 4c-16.667 0 -33.334 -2.66699 -50.001 -8s-32 -13 -46 -23s-26.167 -22 -36.5 -36s-18.5 -29 -24.5 -45v-54h-48v214h48v-69c6.66699 8 11.334 12.833 14.001 14.5s5 3.5 7 5.5s3.66699 3.16699 5 3.5s3 1.5 5 3.5
c34 27.333 75.667 41 125 41h21c6.66699 0 13 -1 19 -3l-10 -48v0z" />
    <glyph glyph-name="s" unicode="s" horiz-adv-x="298" 
d="M253 247c-16.667 0 -30.834 -5.66699 -42.501 -17s-17.5 -25 -17.5 -41v-66c0 -30 -10.667 -55.5 -32 -76.5s-46.666 -31.5 -75.999 -31.5h-33v48h32c16.667 0 30.834 5.66699 42.501 17s17.5 25 17.5 41v66c0 30 10.667 55.5 32 76.5s46.666 31.5 75.999 31.5h33v-48
h-32v0z" />
    <glyph glyph-name="t" unicode="t" horiz-adv-x="234" 
d="M163 51h-48v163h-48v50h48v181h48v-180h48v-49h-48v-165z" />
    <glyph glyph-name="u" unicode="u" horiz-adv-x="283" 
d="M160 51c-28.667 0 -53.5 10.501 -74.5 31.501s-31.5 45.833 -31.5 74.5v108h48v-108c0 -14.667 5.5 -28 16.5 -40s24.5 -18 40.5 -18c16.667 0 30.5 6 41.5 18s16.5 25.333 16.5 40v108h50v-108c0 -28.667 -10.5 -53.334 -31.5 -74.001s-46.167 -31 -75.5 -31v-1z" />
    <glyph glyph-name="v" unicode="v" horiz-adv-x="344" 
d="M121 45c-12 0 -23.501 1.16699 -34.501 3.5s-21.833 5.16602 -32.5 8.49902v208h49v-171h17c26 0 48.667 4.5 68 13.5s35.5 21.5 48.5 37.5s22.833 34.333 29.5 55s10.334 42.334 11.001 65.001h48c0 -30 -4.66699 -58.5 -14 -85.5s-23 -50.167 -41 -69.5
s-39.5 -34.833 -64.5 -46.5s-53.167 -17.5 -84.5 -17.5v-1z" />
    <glyph glyph-name="w" unicode="w" horiz-adv-x="432" 
d="M255 45c-10 0 -19.5 1.16699 -28.5 3.5s-18.167 4.5 -27.5 6.5v32c-36.667 -28 -72.667 -42 -108 -42c-10 0 -19.5 1.16699 -28.5 3.5s-17.833 4.5 -26.5 6.5v210h48v-171c42 0 71.667 12.5 89 37.5s26 54.167 26 87.5v46h48v-171c41.333 0 71 12.833 89 38.5
s27 54.834 27 87.501v45h49v-45c0 -48.667 -13.667 -89.834 -41 -123.501s-66 -50.5 -116 -50.5v-1z" />
    <glyph glyph-name="x" unicode="x" horiz-adv-x="359" 
d="M187 153l-87 -102h-64l120 138l-66 76h64l33 -39l35 39h64l-66 -76l120 -137h-64z" />
    <glyph glyph-name="y" unicode="y" horiz-adv-x="341" 
d="M241 105c6 -3.33301 10 -5.00195 12 -5.00195v-48c-4.66699 0 -10 0.333008 -16 1s-12.667 1.33398 -20 2.00098l-105 -213l-43 21l100 207c-36 18 -63.667 44.333 -83 79s-30 73.334 -32 116.001h49c2 -32.667 10 -62.5 24 -89.5s35.667 -47.5 65 -61.5l73 151h56
l-80 -160v0z" />
    <glyph glyph-name="z" unicode="z" horiz-adv-x="302" 
d="M178 214h-112v51h208l-123 -165h135v-48h-232z" />
    <glyph glyph-name="braceleft" unicode="{" horiz-adv-x="137" 
d="M34 150c8 8 12 19.333 12 34v383c0 16.667 5.66699 29.667 17 39v-914c-12 10 -18 23 -18 39v383c0 7.33301 -0.833008 14 -2.5 20s-4.16699 10.667 -7.5 14zM136 -347v25h-28c-3.33301 0 -6.83301 0.166992 -10.5 0.5s-7.16699 0.833008 -10.5 1.5v937
c3.33301 0.666992 6.83301 1.16699 10.5 1.5s7.5 0.5 11.5 0.5h27v25h-28c-24 0 -44.667 -6.16699 -62 -18.5s-26 -31.833 -26 -58.5v-383c0 -8.66699 -2 -14.667 -6 -18c-2 -2.66699 -6.33301 -4 -13 -4v-1v-24v-1c8 0 13 -1.33301 15 -4
c2.66699 -2.66699 4 -8.66699 4 -18v-383c0 -26 8.83301 -45.5 26.5 -58.5s38.5 -19.5 62.5 -19.5h27z" />
    <glyph glyph-name="bar" unicode="|" horiz-adv-x="60" 
d="M51 -402v1001h-42v-1001h42z" />
    <glyph glyph-name="braceright" unicode="}" horiz-adv-x="155" 
d="M113 150c-8 8 -12 19.333 -12 34v383c0 9.33301 -1.5 17 -4.5 23s-7.16699 11.333 -12.5 16v-914c11.333 10 17 23 17 39v383c0 7.33301 0.833008 14 2.5 20s4.16699 10.667 7.5 14zM11 -347v25h27c3.33301 0 6.83301 0.166992 10.5 0.5s7.16699 0.833008 10.5 1.5v937
c-3.33301 0.666992 -6.83301 1.16699 -10.5 1.5s-7.16699 0.5 -10.5 0.5h-27v25h27c24 0 44.667 -6.16699 62 -18.5s26 -31.833 26 -58.5v-383c0 -8 2 -14 6 -18c2.66699 -2.66699 7 -4 13 -4v-1v-24v-1c-7.33301 0 -12 -1.33301 -14 -4
c-3.33301 -3.33301 -5 -9.33301 -5 -18v-383c0 -26 -8.66699 -45.5 -26 -58.5s-38 -19.5 -62 -19.5h-27z" />
    <glyph glyph-name="asciitilde" unicode="~" horiz-adv-x="414" 
d="M345 179c-14 -9.33301 -29.165 -14.832 -45.498 -16.499s-32.166 0.5 -47.499 6.5l-101 41c-22.667 9.33301 -44.667 7 -66 -7c-9.33301 -6 -16.5 -13.667 -21.5 -23s-7.83301 -19.666 -8.5 -30.999h-30c0.666992 16 4.66699 31 12 45s17.666 25.333 30.999 34
c14 9.33301 29.333 14.666 46 15.999s32.667 -1 48 -7l100 -40c23.333 -9.33301 45.333 -7.33301 66 6c19.333 12.667 29.666 30.667 30.999 54h30c-0.666992 -16 -4.83398 -30.833 -12.501 -44.5s-18.167 -24.834 -31.5 -33.501z" />
    <glyph glyph-name="nonbreakingspace" unicode="&#xa0;" horiz-adv-x="250" 
 />
    <glyph glyph-name="currency" unicode="&#xa4;" horiz-adv-x="298" 
d="M265 281l13 29.999c-23.333 15.333 -49.666 23 -78.999 23c-36 0 -67.333 -11.167 -94 -33.5s-44.334 -51.166 -53.001 -86.499h-21l-9 -22h28c-1.33301 -6.66699 -1.33301 -13.667 0 -21h-20l-9 -22h31c8.66699 -34.667 26.334 -63 53.001 -85s58 -33 94 -33
c6 0 12 0.333008 18 1s11.667 1.66699 17 3l-8 31c-4.66699 -1.33301 -9.33398 -2 -14.001 -2h-13c-26 0 -49.167 7.66699 -69.5 23s-35.166 36.333 -44.499 63h123l10 22h-138v21h147l9 22h-151c9.33301 26 24.166 46.833 44.499 62.5s43.5 23.5 69.5 23.5
c23.333 0 45.333 -6.66699 66 -20z" />
    <glyph glyph-name="brokenbar" unicode="&#xa6;" horiz-adv-x="60" 
d="M14 130h32v465h-32v-465zM14 -401h32v486h-32v-486z" />
    <glyph glyph-name="section" unicode="&#xa7;" horiz-adv-x="159" 
d="M118 412l12 7l-16 28l-13 -8c-22 -14 -38.333 -32.667 -49 -56s-14 -47.666 -10 -72.999c-17.333 -20.667 -27.166 -44.334 -29.499 -71.001s3.5 -52 17.5 -76l43 -73c6.66699 -11.333 10.667 -23 12 -35s0.5 -23.667 -2.5 -35s-8.16699 -22 -15.5 -32
s-16.333 -18.333 -27 -25l-12 -7l18 -28l12 7c22.667 12.667 39.167 31.167 49.5 55.5s13.166 49.166 8.49902 74.499c17.333 20.667 27.333 44.334 30 71.001s-3 51.667 -17 75l-44 73c-6.66699 10.667 -10.667 22.167 -12 34.5s-0.5 24.333 2.5 36s8 22.5 15 32.5
s16.167 18.333 27.5 25zM102 194c7.33301 -12.667 11.333 -26.834 12 -42.501s-2.66602 -32.167 -9.99902 -49.5l-47 78c-16.667 26.667 -17.334 57.334 -2.00098 92.001z" />
    <glyph glyph-name="copyright" unicode="&#xa9;" horiz-adv-x="448" 
d="M224 35c27.333 0 53.166 5.16699 77.499 15.5s45.5 24.5 63.5 42.5s32.333 39 43 63s16 49.667 16 77c0 28 -5.33301 54.167 -16 78.5s-25 45.5 -43 63.5s-39.167 32.167 -63.5 42.5s-50.166 15.5 -77.499 15.5s-53.166 -5.16699 -77.499 -15.5s-45.5 -24.5 -63.5 -42.5
s-32.333 -39.167 -43 -63.5s-16 -50.5 -16 -78.5c0 -27.333 5.33301 -53 16 -77s25 -45 43 -63s39.167 -32.333 63.5 -43s50.166 -16 77.499 -16v1zM224 421c26 0 50.333 -5 73 -15s42.5 -23.5 59.5 -40.5s30.5 -36.833 40.5 -59.5s15 -47 15 -73
c0 -25.333 -5 -49.5 -15 -72.5s-23.5 -43 -40.5 -60s-36.833 -30.5 -59.5 -40.5s-47 -15 -73 -15s-50.5 5 -73.5 15s-43 23.5 -60 40.5s-30.333 37 -40 60s-14.5 47.167 -14.5 72.5c0 26 5 50.333 15 73s23.5 42.5 40.5 59.5s36.833 30.5 59.5 40.5s47 15 73 15zM136 145
c12 -12 25.333 -21 40 -27s29.667 -9 45 -9c16 0 31.667 2.66699 47 8s29 13.666 41 24.999l-23 24c-9.33301 -8 -19.5 -14 -30.5 -18s-22.5 -6 -34.5 -6c-11.333 0 -22.333 2.33301 -33 7s-20.334 11.334 -29.001 20.001c-18 18 -27 39.333 -27 64c0 25.333 9 47 27 65
c8.66699 8.66699 18.334 15.334 29.001 20.001s21.667 7 33 7c12 0 23.5 -2 34.5 -6s21.167 -10 30.5 -18l23 24c-12 11.333 -25.667 19.666 -41 24.999s-31 8 -47 8c-15.333 0 -30.333 -3 -45 -9s-28 -15 -40 -27s-21 -25.833 -27 -41.5s-9 -31.5 -9 -47.5s3 -31.667 9 -47
s15 -29 27 -41z" />
    <glyph glyph-name="guillemotleft" unicode="&#xab;" horiz-adv-x="222" 
d="M150 104h37l-47 77l47 78h-37l-48 -78zM80 103h37l-47 78l47 78h-37l-48 -78z" />
    <glyph glyph-name="logicalnot" unicode="&#xac;" horiz-adv-x="250" 
d="M164 118h32v72h-142v-33h110v-39z" />
    <glyph glyph-name="registered" unicode="&#xae;" horiz-adv-x="220" 
d="M110 273c26.667 0 49.334 9.16797 68.001 27.501s28 40.833 28 67.5c0 12.667 -2.5 24.834 -7.5 36.501s-11.833 21.834 -20.5 30.501s-18.834 15.5 -30.501 20.5s-24.167 7.5 -37.5 7.5s-25.833 -2.5 -37.5 -7.5s-21.834 -11.833 -30.501 -20.5
s-15.5 -18.834 -20.5 -30.501s-7.5 -23.834 -7.5 -36.501c0 -26.667 9.33301 -49.334 28 -68.001s41.334 -28 68.001 -28v1zM110 452.001c22.667 0 42.332 -8.33301 58.999 -25s25 -36.334 25 -59.001c0 -23.333 -8.16699 -43.333 -24.5 -60s-36.166 -25 -59.499 -25
c-12 0 -23 2.33301 -33 7s-18.833 10.834 -26.5 18.501s-13.667 16.667 -18 27s-6.5 21.166 -6.5 32.499s2.16699 22 6.5 32s10.333 18.833 18 26.5s16.5 13.834 26.5 18.501s21 7 33 7zM145.998 311.001l10 6.99805l-18 24c12 12 18 24 18 36
c0 12.667 -4.5 23.5 -13.5 32.5s-19.833 13.5 -32.5 13.5h-33v-13h12v-94h12v95h9c9.33301 0 17.333 -3.33301 24 -10s10 -14.667 10 -24c0 -5.33301 -1.5 -10.666 -4.5 -15.999s-7.16699 -9.66602 -12.5 -12.999l-5 -3z" />
    <glyph glyph-name="degree" unicode="&#xb0;" horiz-adv-x="154" 
d="M77 348c15.333 0 28.499 5.49902 39.499 16.499s16.5 24.167 16.5 39.5s-5.66699 28.5 -17 39.5s-24.666 16.5 -39.999 16.5s-28.333 -5.5 -39 -16.5s-16 -24.167 -16 -39.5s5.5 -28.666 16.5 -39.999s24.167 -17 39.5 -17v1zM76.999 443.999
c10.667 0 20.001 -3.83301 28.001 -11.5s12 -17.167 12 -28.5c0 -10.667 -4 -20.167 -12 -28.5s-17.667 -12.5 -29 -12.5c-10.667 0 -19.834 4.16699 -27.501 12.5s-11.5 17.833 -11.5 28.5s3.83301 20 11.5 28s17.167 12 28.5 12z" />
    <glyph glyph-name="plusminus" unicode="&#xb1;" horiz-adv-x="250" 
d="M140 158h56v32h-56v55h-32v-56h-54v-32h54v-55h32v56zM54 34h142v33h-142v-33z" />
    <glyph glyph-name="mu1" unicode="&#xb5;" horiz-adv-x="201" 
d="M139 61c14.667 -15.333 30.999 -24 48.999 -26v32c-9.33301 2 -17.166 6.5 -23.499 13.5s-9.5 15.167 -9.5 24.5v72h-32v-72c0 -10 -3.83301 -19 -11.5 -27s-16.5 -12 -26.5 -12s-19 3.33301 -27 10s-12 15 -12 25v76h-33v-207h34v75c14 -7.33301 26.667 -11 38 -11
c20 0 38 9 54 27z" />
    <glyph glyph-name="paragraph" unicode="&#xb6;" horiz-adv-x="248" 
d="M201 -108h32v541h-33zM138 -108l35 -0.00195312v541h-57c-14 0 -27 -2.66699 -39 -8s-22.667 -12.666 -32 -21.999s-16.666 -20 -21.999 -32s-8 -25 -8 -39s2.66699 -27 8 -39s12.666 -22.667 21.999 -32s20 -16.666 32 -21.999s25 -8 39 -8h23z" />
    <glyph glyph-name="periodcentered" unicode="&#xb7;" horiz-adv-x="95" 
d="M48 154c7.33301 0 13.666 2.5 18.999 7.5s8 11.5 8 19.5s-2.66699 14.667 -8 20s-12 8 -20 8c-7.33301 0 -13.666 -2.66699 -18.999 -8s-8 -12 -8 -20s2.66699 -14.667 8 -20s12 -8 20 -8v1z" />
    <glyph glyph-name="guillemotright" unicode="&#xbb;" horiz-adv-x="222" 
d="M80 104h-37l47 77l-47 78h37l48 -78zM150 103h-37l47 78l-47 78h37l48 -78z" />
    <glyph glyph-name="afii10023" unicode="&#x401;" horiz-adv-x="469" 
d="M469 190c-13.333 -16 -29.834 -28.6641 -49.501 -37.9971s-41.167 -13.333 -64.5 -12l-157 8v-299h41c22 0 40.833 0.333008 56.5 1s30 1.66699 43 3s25.667 3.16602 38 5.49902s26.166 5.5 41.499 9.5v-49h-296v335h-10c-18 1.33301 -34.5 -2 -49.5 -10
s-27.833 -18.333 -38.5 -31l-24 19c13.333 16 29.833 28.833 49.5 38.5s40.834 13.5 63.501 11.5h9v563h296v-48c-15.333 3.33301 -29.166 6.16602 -41.499 8.49902s-25 4.33301 -38 6s-27.333 2.66699 -43 3s-34.5 0.5 -56.5 0.5h-41v-539l160 -7
c18 -0.666992 34.5 2.66602 49.5 9.99902s27.5 17.333 37.5 30zM167.999 715.003h-16v-866h16v866zM278.999 840.003c0 12 3.83301 22 11.5 30s17.5 12.333 29.5 13c12 0 22.167 -4 30.5 -12s12.5 -17.667 12.5 -29c0 -12 -3.83301 -22 -11.5 -30s-17.5 -12 -29.5 -12
c-12 -0.666992 -21.833 3 -29.5 11s-11.5 17.667 -11.5 29h-2zM152.999 838.003c0 12 3.83301 22 11.5 30s17.5 12 29.5 12c12 0.666992 22.167 -3 30.5 -11s12.5 -17.333 12.5 -28c0 -12 -3.83301 -22 -11.5 -30s-17.5 -12.333 -29.5 -13c-12 0 -22.167 4 -30.5 12
s-12.5 18 -12.5 30v-2z" />
    <glyph glyph-name="afii10053" unicode="&#x404;" horiz-adv-x="961" 
d="M579 745c69.333 -4 133.835 -22.9971 193.502 -56.9971s113.5 -86.333 161.5 -157l-24 -16c-23.333 32.667 -48.666 61.834 -75.999 87.501s-55.5 47 -84.5 64s-58 29.667 -87 38s-56.833 11.833 -83.5 10.5c-54.667 0 -104.5 -11.667 -149.5 -35s-83.667 -55 -116 -95
s-57.5 -86.5 -75.5 -139.5s-27.667 -109.167 -29 -168.5c0 -17.333 0.666992 -34.5 2 -51.5s3.33301 -33.5 6 -49.5l167 -7c18 -0.666992 34.5 2.66602 49.5 9.99902s27.5 17.333 37.5 30l24 -19c-13.333 -16 -29.833 -28.667 -49.5 -38s-41.167 -13.333 -64.5 -12l-158 7
c10 -44.667 25.333 -85.834 46 -123.501s45.5 -70.334 74.5 -98.001s62 -49.334 99 -65.001s76.833 -23.5 119.5 -23.5c70.667 0 136.5 16.833 197.5 50.5s114.5 83.834 160.5 150.501l24 -16c-48 -70.667 -104.167 -123.834 -168.5 -159.501s-133.833 -54.167 -208.5 -55.5
h-11c-53.333 0 -102.833 8.66699 -148.5 26s-86.334 41.5 -122.001 72.5s-65.834 67.667 -90.501 110s-42.334 88.5 -53.001 138.5h-12c-18 1.33301 -34.5 -2 -49.5 -10s-27.833 -18.333 -38.5 -31l-24 19c13.333 16 30 28.667 50 38c18.667 9.33301 41.667 13.333 69 12
c-2.66699 15.333 -4.5 30.833 -5.5 46.5s-1.5 31.834 -1.5 48.501c2 64.667 14 125.5 36 182.5s52.5 106.667 91.5 149s85.667 75.666 140 99.999s114.833 36.5 181.5 36.5zM285.002 592.003c-38.667 -42 -69.001 -89.333 -91.001 -142s-33.667 -110.334 -35 -173.001
c-1.33301 -64.667 8.33398 -124.667 29.001 -180s51 -103.333 91 -144c-32.667 42.667 -57.667 91.334 -75 146.001s-25 114 -23 178c1.33301 60.667 11 117.667 29 171s43 101.333 75 144z" />
    <glyph glyph-name="uni0406" unicode="&#x406;" horiz-adv-x="169" 
d="M96 833h-29l-24 216h77zM49 -181v930h77v-930h-77zM76 1019l6 -54l6 54h-12zM96 719h-17v-870h17v870z" />
    <glyph glyph-name="afii10056" unicode="&#x407;" horiz-adv-x="169" 
d="M161 833h-29l-24 216h77zM49 -181v930h77v-930h-77zM141 1019l6 -54l6 54h-12zM96 719h-17v-870h17v870zM43 833h-29l-24 216h77zM23 1019l6 -54l6 54h-12z" />
    <glyph glyph-name="afii10062" unicode="&#x40e;" horiz-adv-x="617" 
d="M352 108l-332 638h80l284 -529l90 250c16.667 44.667 30.667 89.667 42 135s24.333 93 39 143h53l-106 -289l-115.5 -319.5l-118.5 -322.5h-32zM82 716h-17l296 -560l5 25zM335 801c-16 0 -31 2.50195 -45 7.50195s-26.833 12.167 -38.5 21.5
s-21.334 20.166 -29.001 32.499s-12.834 26.166 -15.501 41.499l29 3c4.66699 -23.333 16.334 -42 35.001 -56s39.667 -21 63 -21c24 0 45.333 7 64 21s30.334 32.667 35.001 56l28 -3c-5.33301 -30 -19.833 -54.667 -43.5 -74s-51.167 -29 -82.5 -29z" />
    <glyph glyph-name="afii10017" unicode="&#x410;" horiz-adv-x="929" 
d="M919 16c-20.667 -22 -44.666 -39.834 -71.999 -53.501s-56 -22.5 -86 -26.5l47 -117h-84l-48 122l-453 53c-4 0.666992 -8 1 -12 1h-11c-10 -28.667 -18.667 -57 -26 -85l-25 -91h-52l69 174c-26 -4 -50.5 -11.833 -73.5 -23.5s-43.5 -27.167 -61.5 -46.5l-21 22
c22 23.333 47.167 41.666 75.5 54.999s59.166 21.333 92.499 24l4 12l228 580l-19 49l37 111l322 -812c28 2.66699 54.833 10.334 80.5 23.001s48.167 29.334 67.5 50.001zM430.001 684.999l-6 -19l321 -817h17zM427.001 573.999l-215.999 -550
c3.33301 0 6.16602 -0.166992 8.49902 -0.5s4.83301 -0.5 7.5 -0.5l437 -52z" />
    <glyph glyph-name="afii10018" unicode="&#x411;" horiz-adv-x="483" 
d="M424 745l0.000976562 -49.001c-30.667 7.33301 -66 12.333 -106 15s-83 4 -129 4h2v-187c36.667 -11.333 71 -28.166 103 -50.499s59.667 -48.666 83 -78.999s41.666 -64.166 54.999 -101.499s20 -77 20 -119c0 -44.667 -7.5 -88.5 -22.5 -131.5
s-35.667 -81.333 -62 -115s-57.5 -60.834 -93.5 -81.501s-75.333 -31 -118 -31h-42v692c-2.66699 0.666992 -6.66699 1 -12 1h-12c-10 0 -20 -0.333008 -30 -1s-20.333 -2.33398 -31 -5.00098l-7 29c21.333 4.66699 44 7 68 7h12c5.33301 0 9.33301 -0.333008 12 -1l1 204
h309zM422.001 177.999c0 42.667 -7.66797 82.832 -23.001 120.499s-35.666 71.5 -60.999 101.5c20.667 -30.667 36.5 -65 47.5 -103s16.5 -78.333 16.5 -121c0 -54.667 -9.66699 -106 -29 -154s-46 -89 -80 -123c20 15.333 37.833 33.5 53.5 54.5s29.167 43.667 40.5 68
s20 49.833 26 76.5s9 53.334 9 80.001zM372 175.997c0 36 -4.33301 70.333 -13 103s-21 62.667 -37 90s-35.167 51.333 -57.5 72s-46.833 37 -73.5 49v-628c26.667 12 51.167 28.5 73.5 49.5s41.5 45.167 57.5 72.5s28.333 57.333 37 90s13 66.667 13 102zM161 714.997h-17
v-866h9.5c0.333008 0 2.83301 0.666992 7.5 2v864z" />
    <glyph glyph-name="afii10019" unicode="&#x412;" horiz-adv-x="373" 
d="M200 331c21.333 20 38 44.6689 50 74.002s18 60.666 18 93.999c0 34 -6 65.333 -18 94s-28.667 53 -50 73c14 -21.333 25 -46.333 33 -75s12 -59.334 12 -92.001s-4 -63.167 -12 -91.5s-19 -53.833 -33 -76.5zM349 50.002c0 -30.667 -6.83301 -60.3311 -20.5 -88.998
s-32.167 -53.334 -55.5 -74.001s-50.833 -37.167 -82.5 -49.5s-65.5 -18.5 -101.5 -18.5h-65v926h60c28.667 0 56 -6.33301 82 -19s48.667 -30.167 68 -52.5s34.833 -48.333 46.5 -78s17.5 -61.834 17.5 -96.501c0 -25.333 -3.33301 -49.833 -10 -73.5
s-16 -45.334 -28 -65.001s-26 -37 -42 -52s-33.333 -27.5 -52 -37.5c26 -7.33301 50.167 -18.166 72.5 -32.499s41.833 -31 58.5 -50s29.5 -40.333 38.5 -64s13.5 -48.5 13.5 -74.5zM100 284.005c16.667 3.33301 32 11.502 46 24.502s26 29 36 48s18 40.667 24 65
s9 50.166 9 77.499s-3 53 -9 77s-14 45.667 -24 65s-22 35.166 -36 47.499s-29.333 20.5 -46 24.5v-429zM71 715.007h-17v-866h16zM100 -149.993c22 2.66699 43.001 9.5 63.001 20.5s37.667 25.5 53 43.5s27.166 38.667 35.499 62s12.5 48 12.5 74
c0 26.667 -4.16699 51.667 -12.5 75s-20 44 -35 62s-32.5 32.5 -52.5 43.5s-41 17.833 -63 20.5v-401h-1zM294.001 50.0068c0 -28 -4.16797 -54.333 -12.501 -79s-20.166 -47 -35.499 -67c22.667 18.667 40.5 40.5 53.5 65.5s19.5 51.833 19.5 80.5
c0 30 -6.5 57.5 -19.5 82.5s-31.167 46.833 -54.5 65.5c15.333 -20 27.333 -42.667 36 -68s13 -52 13 -80z" />
    <glyph glyph-name="afii10020" unicode="&#x413;" horiz-adv-x="441" 
d="M400 745v-49c-30.667 7.33301 -68.5 12.333 -113.5 15s-90.167 4 -135.5 4h-40v-896h-76v926h365zM81 715h-16v-866h16v866z" />
    <glyph glyph-name="afii10021" unicode="&#x414;" horiz-adv-x="541" 
d="M339 -176l-139 -0.00585938c-22 0 -41 -0.333008 -57 -1s-30.5 -1.66699 -43.5 -3s-25.5 -3.16602 -37.5 -5.49902s-25.333 -5.16602 -40 -8.49902v48h85c-8 38 -9.83301 80.167 -5.5 126.5s11.5 94.833 21.5 145.5s21 102.334 33 155.001s22 104.334 30 155.001
s12.333 99.334 13 146.001s-5.66602 89.334 -18.999 128.001c-20.667 -1.33301 -40.334 -3.16602 -59.001 -5.49902s-35.334 -5.16602 -50.001 -8.49902v49h365v-891h82v-48c-15.333 3.33301 -29.166 6.16602 -41.499 8.49902s-25 4.16602 -38 5.49902
s-27.333 2.33301 -43 3s-34.5 1 -56.5 1zM360 714.994l-39.9961 0.000976562c-37.333 0 -74 -1 -110 -3c13.333 -41.333 19.666 -85.833 18.999 -133.5s-4.83398 -96.834 -12.501 -147.501s-17.667 -102 -30 -154s-23.333 -102.833 -33 -152.5s-16.834 -97.5 -21.501 -143.5
s-3.33398 -88.333 3.99902 -127h224v861zM406.004 714.995h-16v-861h16v861z" />
    <glyph glyph-name="afii10022" unicode="&#x415;" horiz-adv-x="469" 
d="M469 190c-13.333 -16 -29.834 -28.6641 -49.501 -37.9971s-41.167 -13.333 -64.5 -12l-157 8v-299h41c22 0 40.833 0.333008 56.5 1s30 1.66699 43 3s25.667 3.16602 38 5.49902s26.166 5.5 41.499 9.5v-49h-296v335h-10c-18 1.33301 -34.5 -2 -49.5 -10
s-27.833 -18.333 -38.5 -31l-24 19c13.333 16 29.833 28.833 49.5 38.5s40.834 13.5 63.501 11.5h9v563h296v-48c-15.333 3.33301 -29.166 6.16602 -41.499 8.49902s-25 4.33301 -38 6s-27.333 2.66699 -43 3s-34.5 0.5 -56.5 0.5h-41v-539l160 -7
c18 -0.666992 34.5 2.66602 49.5 9.99902s27.5 17.333 37.5 30zM167.999 715.003h-16v-866h16v866z" />
    <glyph glyph-name="afii10024" unicode="&#x416;" horiz-adv-x="944" 
d="M476 713h-16v-866h16v866zM506 -183l-75.9932 -0.00292969v513c-52.667 -4 -95 -13.5 -127 -28.5s-56.5 -33.667 -73.5 -56s-27.5 -47 -31.5 -74s-4.5 -54.333 -1.5 -82s8.66699 -54.667 17 -81s16.5 -49.833 24.5 -70.5c8 -20 8.66699 -39.333 2 -58
s-17 -33.834 -31 -45.501s-29.833 -18.5 -47.5 -20.5s-33.834 4 -48.501 18c-4 3.33301 -8.16699 8.33301 -12.5 15s-7.5 13.834 -9.5 21.501s-1.66699 14.834 1 21.501s9 11.667 19 15c8.66699 3.33301 16.167 2.5 22.5 -2.5s10.166 -8.83301 11.499 -11.5
c2.66699 -4 3.16699 -8.16699 1.5 -12.5s-3.66699 -8.5 -6 -12.5s-4.33301 -7.83301 -6 -11.5s-1.5 -6.83398 0.5 -9.50098c9.33301 -10 18.5 -15.167 27.5 -15.5s16.5 2.66699 22.5 9s9.33301 15.5 10 27.5s-2.66602 25 -9.99902 39c-10 18.667 -20.167 39.167 -30.5 61.5
s-19.333 44.833 -27 67.5s-13.5 45 -17.5 67s-4.66699 42.333 -2 61c2.66699 20.667 10.5 42 23.5 64s31.667 42.167 56 60.5s55.333 33.5 93 45.5s82.5 18 134.5 18c-32 -2 -58.333 2.33301 -79 13s-37.667 25.334 -51 44.001s-23.5 39.834 -30.5 63.501
s-12.833 47.5 -17.5 71.5s-8.66699 46.833 -12 68.5s-8 39.834 -14 54.501c-4 10.667 -13 19.167 -27 25.5s-30 10.833 -48 13.5s-36.667 3.83398 -56 3.50098s-37 -2.16602 -53 -5.49902v35c33.333 0 61.666 -0.666992 84.999 -2s43 -4.16602 59 -8.49902
s29.167 -10.5 39.5 -18.5s19.166 -18.333 26.499 -31c8 -14 14.167 -31.833 18.5 -53.5l13 -68c4.33301 -23.667 9.66602 -47.167 15.999 -70.5s15.333 -43.666 27 -60.999s26.834 -30.333 45.501 -39s43 -10.667 73 -6v364h76v-364c29.333 -5.33301 53.5 -3.5 72.5 5.5
s34.333 22.167 46 39.5s20.667 37.666 27 60.999s11.666 46.833 15.999 70.5l13 68c4.33301 21.667 10.5 39.5 18.5 53.5c7.33301 12.667 16.166 23 26.499 31s23.5 14.167 39.5 18.5s35.667 7.16602 59 8.49902s51.666 2 84.999 2v-34c-19.333 4 -39.333 6 -60 6
s-39.834 -1.83301 -57.501 -5.5s-32.834 -8.66699 -45.501 -15s-20.667 -14.166 -24 -23.499c-5.33301 -14.667 -9.66602 -32.834 -12.999 -54.501s-7.16602 -44.5 -11.499 -68.5s-10 -47.833 -17 -71.5s-17 -44.834 -30 -63.501s-29.833 -33.334 -50.5 -44.001
s-47 -15 -79 -13c52 0 96.833 -6 134.5 -18s68.667 -27.167 93 -45.5s42.833 -38.5 55.5 -60.5s20.667 -43.333 24 -64c2.66699 -18.667 2 -39 -2 -61s-9.83301 -44.333 -17.5 -67s-16.667 -45.167 -27 -67.5s-20.5 -42.833 -30.5 -61.5
c-7.33301 -14 -10.666 -27 -9.99902 -39s4 -21.167 10 -27.5s13.5 -9.33301 22.5 -9s18.167 5.5 27.5 15.5c2 2.66699 2.16699 5.83398 0.5 9.50098s-3.66699 7.5 -6 11.5s-4.33301 8.16699 -6 12.5s-1.16699 8.5 1.5 12.5c1.33301 2.66699 5.16602 6.5 11.499 11.5
s13.833 5.83301 22.5 2.5c10 -3.33301 16.333 -8.33301 19 -15s3 -13.834 1 -21.501s-5.16699 -14.834 -9.5 -21.501s-8.5 -11.667 -12.5 -15c-14.667 -14 -30.834 -20 -48.501 -18s-33.5 8.83301 -47.5 20.5s-24.333 26.834 -31 45.501s-6 38 2 58
c8 20.667 16.167 44.167 24.5 70.5s14 53.333 17 81s2.5 55 -1.5 82s-14.5 51.667 -31.5 74s-41.5 41 -73.5 56s-74.333 24.5 -127 28.5v-513zM677.007 299.997c14 -10 27.3291 -21 39.9961 -33s23.5 -25.333 32.5 -40s15.833 -30.5 20.5 -47.5s6 -35.833 4 -56.5
c-2 -22 -6.66699 -45.167 -14 -69.5l-21.5 -70.5c-7 -22.667 -12.5 -43.834 -16.5 -63.501s-3.66699 -36.5 1 -50.5c0 14 3.33301 30.833 10 50.5l23 65c8.66699 23.667 16.834 48.667 24.501 75s12.167 53.166 13.5 80.499
c0.666992 16.667 -2.16602 33.334 -8.49902 50.001s-15.166 32.334 -26.499 47.001s-24.166 27.5 -38.499 38.5s-28.833 19.167 -43.5 24.5zM256.003 301.997c-14.667 -5.33301 -29.168 -13.5 -43.501 -24.5s-27.166 -23.833 -38.499 -38.5s-20.333 -30.334 -27 -47.001
s-9.33398 -33.334 -8.00098 -50.001c1.33301 -27.333 5.83301 -54.166 13.5 -80.499s15.834 -51.333 24.501 -75l23 -65c6.66699 -19.667 10 -36.5 10 -50.5c4.66699 14 5 30.833 1 50.5s-9.5 40.834 -16.5 63.501l-21.5 70.5c-7.33301 24.333 -12 47.5 -14 69.5
c-2 20.667 -0.666992 39.5 4 56.5s11.5 32.833 20.5 47.5s19.833 28 32.5 40s26 23 40 33z" />
    <glyph glyph-name="afii10025" unicode="&#x417;" horiz-adv-x="612" 
d="M464 255c20.667 -27.333 37.833 -56.667 51.5 -88s20.5 -63 20.5 -95s-4.5 -61.833 -13.5 -89.5s-20.167 -52.167 -33.5 -73.5c21.333 19.333 39.333 43 54 71s22 58.667 22 92c0 16 -2.66699 32.667 -8 50s-12.5 34 -21.5 50s-19.667 31.167 -32 45.5
s-25.5 26.833 -39.5 37.5zM425.999 698.999c28 -28 47.668 -56.334 59.001 -85.001s17 -59 17 -91s-6.16699 -61.167 -18.5 -87.5s-29.5 -50.833 -51.5 -73.5l39 32.5c12 10.333 22.5 21.5 31.5 33.5s16.167 25.667 21.5 41s8.33301 33.333 9 54
c1.33301 40.667 -7.83398 75.334 -27.501 104.001s-46.167 52.667 -79.5 72zM131 159.998c-33.333 -16 -57.832 -36.001 -73.499 -60.001s-23.5 -49 -23.5 -75s7.16699 -51.333 21.5 -76s35.166 -45.667 62.499 -63c-18 18.667 -32.167 40 -42.5 64
s-15.666 48.5 -15.999 73.5s5.16699 49.333 16.5 73s29.666 44.834 54.999 63.501zM103.001 537.997c-2 35.333 4 66 18 92s32.333 47.667 55 65c18 14.667 37.333 25.667 58 33s41.667 11.833 63 13.5s42.5 0.833984 63.5 -2.49902s41.167 -8.33301 60.5 -15
c40.667 -14.667 73 -35.667 97 -63s39.667 -57 47 -89c6 -24.667 6.5 -49.834 1.5 -75.501s-15.333 -50 -31 -73s-37 -44 -64 -63s-59.5 -34.167 -97.5 -45.5c36 -7.33301 67.833 -19.5 95.5 -36.5s51 -37 70 -60s33.5 -48 43.5 -75s15 -54.167 15 -81.5
c0 -35.333 -8 -68 -24 -98s-38 -56 -66 -78s-60.667 -39.167 -98 -51.5s-77.333 -18.5 -120 -18.5c-27.333 0 -57 4.16699 -89 12.5s-61.667 20.833 -89 37.5s-50.333 37.834 -69 63.501s-28 55.834 -28 90.501v1c0 26.667 4.16699 50.167 12.5 70.5s20 37.166 35 50.499
s32.833 23.5 53.5 30.5s43.334 10.5 68.001 10.5c19.333 0 37.166 -3.33301 53.499 -10s30.5 -15.5 42.5 -26.5s21.333 -24 28 -39s10 -30.833 10 -47.5c0 -20.667 -5 -41 -15 -61l-27 15c7.33301 16 11 30.667 11 44c0 25.333 -8 47 -24 65s-38 28.333 -66 31l-9 -1
c-16.667 0 -31.5 -3.5 -44.5 -10.5s-24.167 -16.5 -33.5 -28.5s-16.5 -26 -21.5 -42s-7.5 -33.333 -7.5 -52v-1c0 -36 10.333 -69 31 -99s50 -50.667 88 -62h1c32 -8.66699 61.667 -13 89 -13c49.333 0 90.166 10.333 122.499 31s56.333 46.834 72 78.501
s23.334 66.5 23.001 104.5s-8.16602 74 -23.499 108s-37.833 63.667 -67.5 89s-65.834 41.333 -108.501 48l2 24c28.667 2 54 10.667 76 26s40 34.166 54 56.499s23.833 47.166 29.5 74.499s6.5 54 2.5 80c-2.66699 18.667 -7.33398 36.5 -14.001 53.5s-16.167 32 -28.5 45
s-28.166 23.833 -47.499 32.5s-43.333 13.667 -72 15c-21.333 0.666992 -42.833 -2.83301 -64.5 -10.5s-41 -19 -58 -34s-30.167 -33.5 -39.5 -55.5s-12 -46.333 -8 -73h-37z" />
    <glyph glyph-name="afii10026" unicode="&#x418;" horiz-adv-x="444" 
d="M43 360l0.999023 2v381h30v-432c20.667 23.333 43.834 45 69.501 65s52.834 38.333 81.501 55c34.667 20 65.667 43.333 93 70s45.666 58.667 54.999 96v146h30v-58v-863h-30v621c-16 -18.667 -33.667 -35.167 -53 -49.5s-40.333 -27.833 -63 -40.5
c-24.667 -13.333 -48 -28.5 -70 -45.5s-41.333 -35.667 -58 -56s-30 -42.5 -40 -66.5s-15 -50 -15 -78v-285h-30v537zM73.999 223c18 34 41.667 63.499 71 88.499s62 47.5 98 67.5c25.333 14.667 49.333 31.167 72 49.5s42 38.833 58 61.5v35
c-16 -25.333 -35.667 -47.666 -59 -66.999s-48.333 -37 -75 -53c-34 -20 -65 -41.667 -93 -65s-52 -50.333 -72 -81v-36z" />
    <glyph glyph-name="afii10027" unicode="&#x419;" horiz-adv-x="446" 
d="M40 360l0.999023 2v381h30v-432c20.667 23.333 43.834 45 69.501 65s52.834 38.333 81.501 55c34.667 20 65.667 43.333 93 70s45.666 58.667 54.999 96v146h30v-58v-863h-30v621c-16 -18.667 -33.667 -35.167 -53 -49.5s-40.333 -27.833 -63 -40.5
c-24.667 -13.333 -48 -28.5 -70 -45.5s-41.333 -35.667 -58 -56s-30 -42.5 -40 -66.5s-15 -50 -15 -78v-285h-30v537zM70.999 223c18 34 41.667 63.499 71 88.499s62 47.5 98 67.5c25.333 14.667 49.333 31.167 72 49.5s42 38.833 58 61.5v35
c-16 -25.333 -35.667 -47.666 -59 -66.999s-48.333 -37 -75 -53c-34 -20 -65 -41.667 -93 -65s-52 -50.333 -72 -81v-36zM225.999 800.999c-16 0 -31 2.50195 -45 7.50195s-26.833 12.167 -38.5 21.5s-21.334 20.166 -29.001 32.499s-12.834 26.166 -15.501 41.499l29 3
c4.66699 -23.333 16.334 -42 35.001 -56s39.667 -21 63 -21c24 0 45.333 7 64 21s30.334 32.667 35.001 56l28 -3c-5.33301 -30 -19.833 -54.667 -43.5 -74s-51.167 -29 -82.5 -29z" />
    <glyph glyph-name="afii10028" unicode="&#x41a;" horiz-adv-x="875" 
d="M875 -16c-10 -24 -23.3311 -46.168 -39.998 -66.501s-35.834 -37.666 -57.501 -51.999s-45.5 -25.5 -71.5 -33.5s-53.333 -12 -82 -12c-31.333 0 -62.833 4.83301 -94.5 14.5s-62.834 21.334 -93.501 35.001s-60.334 28.167 -89.001 43.5s-56 29 -82 41
c-20.667 10 -43.334 17 -68.001 21v-156h-76v159c-30 -2 -57.667 -10 -83 -24c-4 -1.33301 -8 -3.16602 -12 -5.49902s-8 -4.5 -12 -6.5l-14 27c21.333 11.333 42 23.166 62 35.499s39.667 25.166 59 38.499v702h76v-641c96.667 85.333 175.834 185.5 237.501 300.5
s99.167 239.833 112.5 374.5l29 -3c-7.33301 -72 -21.333 -141.333 -42 -208s-47.167 -130.167 -79.5 -190.5s-70.333 -117 -114 -170s-91.5 -100.833 -143.5 -143.5v-59c15.333 -2.66699 29.5 -5.83398 42.5 -9.50098s25.5 -8.5 37.5 -14.5
c24.667 -12 51.334 -25.667 80.001 -41s57.5 -29.833 86.5 -43.5s58.667 -25 89 -34s60.833 -13.5 91.5 -13.5c51.333 0 97 13.833 137 41.5s68.333 62.834 85 105.501zM167.002 714.999h-16v-866h16v866z" />
    <glyph glyph-name="afii10029" unicode="&#x41b;" horiz-adv-x="417" 
d="M348 -151h19v867h-19v-867zM318 717c-28 -3.33301 -54.6689 -12.8301 -80.002 -28.4971s-47 -32.5 -65 -50.5c-30.667 -31.333 -52.667 -67 -66 -107s-20.833 -81.833 -22.5 -125.5s1.16602 -88 8.49902 -133s16.5 -88.167 27.5 -129.5s22.833 -79.333 35.5 -114l32 -86
c10.667 -28 13.167 -52 7.5 -72s-15.5 -34.833 -29.5 -44.5s-30.167 -13.667 -48.5 -12s-35.166 9.83398 -50.499 24.501c-4 4 -8.33301 9.66699 -13 17s-8 15.166 -10 23.499s-1.66699 16.166 1 23.499s9 12.666 19 15.999c9.33301 2.66699 17.166 1.5 23.499 -3.5
s10.5 -8.83301 12.5 -11.5c2.66699 -4 3.33398 -8.33301 2.00098 -13s-3.33301 -9.16699 -6 -13.5s-4.83398 -8.5 -6.50098 -12.5s-1.5 -7.33301 0.5 -10c10 -11.333 20.833 -16.833 32.5 -16.5s21.5 5 29.5 14s12.833 21.333 14.5 37s-2.83301 33.167 -13.5 52.5l-40 84.5
c-13.333 27 -25.666 53.167 -36.999 78.5c-23.333 52.667 -41.166 103.167 -53.499 151.5s-15.5 97.5 -9.5 147.5c4 31.333 11.333 61.833 22 91.5s24.334 57.5 41.001 83.5s36 50 58 72s46 40.667 72 56c13.333 7.33301 25.833 13.666 37.5 18.999s23.167 9.5 34.5 12.5
s23.333 5 36 6s26.667 1.5 42 1.5l41 -1v-926h-49.5c-14.333 0 -23.833 0.333008 -28.5 1zM56.998 383.003c-0.666992 28 2.49707 55.6709 9.49707 83.0039s16.833 53.666 29.5 78.999s27.834 49.833 45.501 73.5s37.167 46.167 58.5 67.5
c-25.333 -18 -48.333 -39.333 -69 -64s-38.167 -50.834 -52.5 -78.501s-25.333 -55.834 -33 -84.501s-11.5 -56.334 -11.5 -83.001c0 -25.333 2.5 -53.333 7.5 -84s11.833 -61.167 20.5 -91.5s18.834 -59.166 30.501 -86.499s24.167 -50 37.5 -68
c-9.33301 20.667 -18.166 45.167 -26.499 73.5s-15.833 57.833 -22.5 88.5s-12.167 61.167 -16.5 91.5s-6.83301 58.166 -7.5 83.499z" />
    <glyph glyph-name="afii10030" unicode="&#x41c;" horiz-adv-x="683" 
d="M577 -181v830l-217 -282l26 -33l-49 -62l-278 362v-812h-30v977l312 -405l313 406v-981h-77zM624 710l-17 -21v-840h17v861zM347 334c-0.666992 1.33301 -0.665039 1.66699 0.00195312 1s-0.333008 0.666016 -3 3.99902l-18 22.5l-45 58.5l-84.5 110.5l-137.5 178.5v-25
l131.5 -173l82.5 -106l44 -56.5l16.5 -22c2.33301 -3 3.16602 -4.16699 2.49902 -3.5s-0.333984 0.333984 0.999023 -0.999023z" />
    <glyph glyph-name="afii10031" unicode="&#x41d;" horiz-adv-x="618" 
d="M618 190c-14.667 -18 -31.999 -32.332 -51.999 -42.999s-41.333 -17.334 -64 -20.001v-308h-76v308l-235 12v-320h-76v321c-38 -6 -68.333 -23.333 -91 -52l-24 19c29.333 36 67.666 57 114.999 63v575h76v-577l235 -11v588h76v-589c18 3.33301 35.167 9.5 51.5 18.5
s30.5 20.5 42.5 34.5zM472.001 715.001h-16v-866h16v866zM161.001 715.001h-16v-866h16v866z" />
    <glyph glyph-name="afii10032" unicode="&#x41e;" horiz-adv-x="912" 
d="M883 287c0 -74 -11.168 -140.667 -33.501 -200s-52.833 -109.833 -91.5 -151.5s-84 -73.667 -136 -96s-107.333 -33.5 -166 -33.5s-114 12.5 -166 37.5s-97.333 59.333 -136 103s-69.167 94.5 -91.5 152.5s-33.5 120.333 -33.5 187c0 65.333 11.167 127 33.5 185
s52.833 108.667 91.5 152s84 77.5 136 102.5s107.333 37.5 166 37.5v-30c-47.333 0 -91.333 -11.833 -132 -35.5s-76.5 -55.667 -107.5 -96s-55.167 -87.666 -72.5 -141.999s-26 -112.166 -26 -173.499c0 -62 8.66699 -120.167 26 -174.5s41.5 -101.833 72.5 -142.5
s66.833 -73 107.5 -97s84.334 -36 131.001 -36h1c46.667 0 90.5 11 131.5 33s77 52.333 108 91s55.167 84.667 72.5 138s26 110.666 26 171.999c0 58.667 -5.66699 113 -17 163s-27 93.333 -47 130s-43.667 65.334 -71 86.001s-56.666 31 -87.999 31v2h-3
c-24 0 -46.667 -4 -68 -12s-40.833 -19.833 -58.5 -35.5s-32.5 -34.167 -44.5 -55.5s-20.333 -45 -25 -71l-29 4c6 30.667 15.667 58.167 29 82.5s30 45.166 50 62.499s42.5 30.5 67.5 39.5s51.167 13.5 78.5 13.5h3c4 0 7.5 -0.166992 10.5 -0.5s6.5 -0.5 10.5 -0.5
c36.667 -4.66699 72.5 -17.834 107.5 -39.501s66.167 -50.667 93.5 -87s49.166 -79.5 65.499 -129.5s24.5 -105.333 24.5 -166zM852.999 287c0 68.667 -10.834 129.834 -32.501 183.501s-49.167 97.5 -82.5 131.5c26.667 -40 47.667 -88.167 63 -144.5
s23 -118.833 23 -187.5s-10.167 -131.834 -30.5 -189.501s-48.166 -107.167 -83.499 -148.5c44 38.667 78.833 88 104.5 148s38.5 129 38.5 207zM197.998 -56c-34.667 44 -61.667 95.001 -81 153.001s-29 121 -29 189c0 66.667 9.66699 129 29 187s46.333 108.667 81 152
c-43.333 -40.667 -77.333 -90.334 -102 -149.001s-37 -122 -37 -190c0 -69.333 12.333 -133.333 37 -192s58.667 -108.667 102 -150z" />
    <glyph glyph-name="afii10033" unicode="&#x41f;" horiz-adv-x="618" 
d="M618 773c-14.667 -18 -32 -32.332 -52 -42.999s-41.333 -17.334 -64 -20.001v-891h-76v891l-235 3v-894h-76v895c-38 -6 -68.333 -23.333 -91 -52l-24 19c28.667 36 67 57 115 63l311 -3l76 2c19.333 1.33301 36.833 6.33301 52.5 15s29.5 20 41.5 34zM472 715.001h-16
v-866h16v866zM161 715.001h-16v-866h16v866z" />
    <glyph glyph-name="afii10034" unicode="&#x420;" horiz-adv-x="451" 
d="M430 386c0 -41.333 -6.66699 -80.832 -20 -118.499s-31.666 -71.667 -54.999 -102s-51 -56.666 -83 -78.999s-66.333 -39.166 -103 -50.499v-217h-77v204c-4 -0.666992 -8 -1 -12 -1h-12c-22.667 0 -45.334 2.33301 -68.001 7l7 29
c10.667 -2.66699 21 -4.33398 31 -5.00098s20 -1 30 -1h12c4 0 8 0.333008 12 1v692h42c42.667 0 82 -10.333 118 -31s67.167 -47.834 93.5 -81.501s47 -71.834 62 -114.501s22.5 -86.667 22.5 -132zM400 386.001c0 27.333 -2.99902 54.165 -8.99902 80.498
s-14.667 51.833 -26 76.5s-24.833 47.334 -40.5 68.001s-33.5 38.667 -53.5 54c34 -34 60.667 -75 80 -123s29 -99.333 29 -154c0 -42.667 -5.5 -83 -16.5 -121s-26.833 -72.333 -47.5 -103c25.333 30 45.666 63.833 60.999 101.5s23 77.834 23 120.501zM350.001 388
c0 36 -4.33301 70.167 -13 102.5s-21.167 62 -37.5 89s-35.5 51.167 -57.5 72.5s-46.333 38 -73 50v-628c26.667 12 51 28.5 73 49.5s41.167 45 57.5 72s28.833 56.833 37.5 89.5s13 67 13 103zM139.001 713c-4.66699 1.33301 -7.16699 2 -7.5 2h-9.5v-866h17v864z" />
    <glyph glyph-name="afii10035" unicode="&#x421;" horiz-adv-x="863" 
d="M844 438c0 -36.667 -6.49902 -69.998 -19.499 -99.998s-30.667 -55.833 -53 -77.5s-48.833 -38.334 -79.5 -50.001s-63.667 -17.5 -99 -17.5h-3h-2c-20.667 0 -40.667 3 -60 9s-37 14.5 -53 25.5s-30.167 23.667 -42.5 38s-21.833 30.166 -28.5 47.499
c-6 18 -9.66699 36.333 -11 55s0.5 37 5.5 55s12.833 35 23.5 51s24.667 30 42 42l17 -24c-28.667 -20 -46.334 -45.833 -53.001 -77.5s-5 -62.167 5 -91.5c10.667 -30 30.5 -54.167 59.5 -72.5s61.5 -27.5 97.5 -27.5c28 0 54 5.16699 78 15.5s44.833 25 62.5 44
s31.5 41.667 41.5 68s15 55.5 15 87.5c0 37.333 -6.33301 71.666 -19 102.999s-30 58.666 -52 81.999s-48 42.333 -78 57s-62 24.667 -96 30c-10.667 2 -21.5 3.33301 -32.5 4s-22.167 1 -33.5 1c-54.667 0 -104.834 -11.833 -150.501 -35.5s-85.167 -55.167 -118.5 -94.5
s-59.5 -85.666 -78.5 -138.999s-29.167 -109.666 -30.5 -168.999c-0.666992 -60 7.5 -116.833 24.5 -170.5s41 -100.167 72 -139.5s68.333 -70.833 112 -94.5s91.834 -35.5 144.501 -35.5c70.667 0 136.5 17 197.5 51s114.5 84 160.5 150l24 -16
c-47.333 -70.667 -103.333 -123.834 -168 -159.501s-134.334 -54.167 -209.001 -55.5h-11c-64 0 -122.167 12.167 -174.5 36.5s-97.5 57.833 -135.5 100.5s-67.167 92.667 -87.5 150s-29.833 118.333 -28.5 183c2 64.667 14.333 125.5 37 182.5s54 106.5 94 148.5
s87.833 75.333 143.5 100s116.5 37 182.5 37c26.667 0 53.334 -2.33301 80.001 -7c40 -7.33301 77.5 -19.166 112.5 -35.499s65.5 -37.333 91.5 -63s46.5 -55.5 61.5 -89.5s22.5 -71.333 22.5 -112zM174.001 592.002c-38.667 -41.333 -69 -88.668 -91 -142.001
s-33.667 -111 -35 -173c-1.33301 -64.667 8.5 -124.667 29.5 -180s51.167 -103.333 90.5 -144c-32.667 42.667 -57.667 91.5 -75 146.5s-25 114.167 -23 177.5c1.33301 60 11 116.833 29 170.5s43 101.834 75 144.501z" />
    <glyph glyph-name="afii10036" unicode="&#x422;" horiz-adv-x="480" 
d="M466 697c-15.333 3.33301 -29.001 6.16602 -41.001 8.49902s-24.667 4.33301 -38 6s-27.833 2.66699 -43.5 3s-34.5 0.5 -56.5 0.5h-10v-896h-75v896h-10c-22.667 0 -41.667 -0.166992 -57 -0.5s-29.666 -1.33301 -42.999 -3s-26 -3.66699 -38 -6
s-25.333 -5.16602 -40 -8.49902v48h452v-48zM246.999 715h-15v-866h15v866z" />
    <glyph glyph-name="afii10037" unicode="&#x423;" horiz-adv-x="617" 
d="M352 108l-332 638h80l284 -529l90 250c16.667 44.667 30.667 89.667 42 135s24.333 93 39 143h53l-106 -289l-115.5 -319.5l-118.5 -322.5h-32zM82 716h-17l296 -560l5 25z" />
    <glyph glyph-name="afii10038" unicode="&#x424;" horiz-adv-x="627" 
d="M272 -51c-38 10.667 -72.833 27.167 -104.5 49.5s-59 48.833 -82 79.5s-41 64.834 -54 102.501s-19.5 77.167 -19.5 118.5c0 40.667 6.33301 81 19 121s30.5 76.333 53.5 109s50.5 60.334 82.5 83.001s67 37 105 43v90h77v-95c38 -6 72.833 -20.333 104.5 -43
s59 -50.334 82 -83.001s41 -69 54 -109s19.5 -80.333 19.5 -121c0 -41.333 -6.5 -80.833 -19.5 -118.5s-31 -71.834 -54 -102.501s-50.333 -57.167 -82 -79.5s-66.5 -38.833 -104.5 -49.5v-125h-77v130zM579 294c0 27.333 -3 54.501 -9 81.501s-14.667 52.667 -26 77
s-25 47 -41 68s-34 39.167 -54 54.5c34 -34 61 -75 81 -123s30 -100.333 30 -157c0 -42 -5.5 -81.833 -16.5 -119.5s-26.5 -71.834 -46.5 -102.501c25.333 30 45.333 63.667 60 101s22 77.333 22 120zM530 295.001c0 34.667 -4.33301 68.501 -13 101.501
s-21 63.167 -37 90.5s-35.167 51.666 -57.5 72.999s-46.833 38 -73.5 50v-629c26.667 12 51 28.5 73 49.5s41 45.167 57 72.5s28.5 57.333 37.5 90s13.5 66.667 13.5 102zM319 715.002h-17v-866h17v866zM42 299.002c0 -42.667 7.33301 -82.668 22 -120.001
s34.667 -71 60 -101c-20 30.667 -35.5 64.834 -46.5 102.501s-16.5 77.5 -16.5 119.5c0 56.667 10 109 30 157s47 89 81 123c-20 -15.333 -38 -33.5 -54 -54.5s-29.667 -43.667 -41 -68s-20 -50 -26 -77s-9 -54.167 -9 -81.5zM91 300.001
c0 -35.333 4.5 -69.334 13.5 -102.001s21.5 -62.667 37.5 -90s35 -51.5 57 -72.5s46.333 -37.5 73 -49.5v629c-26.667 -12 -51.167 -28.667 -73.5 -50s-41.5 -45.666 -57.5 -72.999s-28.333 -57.5 -37 -90.5s-13 -66.833 -13 -101.5z" />
    <glyph glyph-name="afii10039" unicode="&#x425;" horiz-adv-x="568" 
d="M479 -181l-220 435l-46.5 -99.5l-45.5 -98.5l-112 -237h-55l79.5 136c24.333 42 47.833 87 70.5 135l92 198l-230 457h83l192 -375l175 375h54l-36 -58l-29.5 -49.5l-27 -48c-9 -16.333 -17.833 -34.5 -26.5 -54.5h-1l-92 -198l264 -518h-89zM77 715h-16l436 -866h21z
" />
    <glyph glyph-name="afii10040" unicode="&#x426;" horiz-adv-x="515" 
d="M483 -244c-8.66699 16 -18.6689 29.5 -30.002 40.5s-26.666 17.167 -45.999 18.5l-76 2l-311 -3v30v895h76v-894l235 2v892h76v-891c22.667 -2.66699 43.334 -10.167 62.001 -22.5s30.667 -28.833 36 -49.5zM376.998 709h-16v-866h16v866zM65.998 709h-16v-866h16v866z
" />
    <glyph glyph-name="afii10041" unicode="&#x427;" horiz-adv-x="444" 
d="M346 -181l-0.000976562 442.005c-10 -8 -21.333 -14.667 -34 -20s-25.334 -9.83301 -38.001 -13.5s-24.334 -6.33398 -35.001 -8.00098s-19 -2.5 -25 -2.5c-28 0 -54.167 5.33301 -78.5 16s-45.666 25.167 -63.999 43.5s-32.666 39.833 -42.999 64.5s-15.5 51 -15.5 79
v328h75v-351c0 -20.667 3.66699 -40.334 11 -59.001s17.333 -34.834 30 -48.501s27.834 -24.334 45.501 -32.001s36.5 -10.834 56.5 -9.50098c4.66699 0 12.167 1 22.5 3s21.333 5 33 9s23 9.33301 34 16s19.5 15 25.5 25v448h77v-930h-77zM392.999 719.005h-17v-870h17v870
zM74.999 319.005c-11.333 26 -17 52.001 -17 78.001v321h-15v-298c0 -36.667 10.667 -70.334 32 -101.001z" />
    <glyph glyph-name="afii10042" unicode="&#x428;" horiz-adv-x="741" 
d="M20 -156v892h76v-890l235 1v889h76v-891l235 2v889h76v-888v-34l-698 -1v31zM688 706h-16v-863h16v863zM377 706h-16v-863h16v863zM66 706h-16v-862h16v862z" />
    <glyph glyph-name="afii10043" unicode="&#x429;" horiz-adv-x="824" 
d="M15 -189l-0.00195312 30v895h76v-894l235 2v895h76v-894l235 2v892h76v-891c22.667 -2.66699 43.334 -10.167 62.001 -22.5s30.667 -28.833 36 -49.5l-22 -20c-8.66699 16 -18.667 29.5 -30 40.5s-26.666 17.167 -45.999 18.5l-76 2l-311 -3zM682.998 709h-16v-866h16
v866zM371.998 709h-16v-866h16v866zM60.998 706h-16v-866h16v866z" />
    <glyph glyph-name="afii10044" unicode="&#x42a;" horiz-adv-x="517" 
d="M213 715h-17v-866h16zM243 -150l-1 -0.000976562c26.667 0.666992 50.167 9.33398 70.5 26.001s37.5 37.5 51.5 62.5s24.5 52.167 31.5 81.5s10.5 57.333 10.5 84s-4.16699 52.5 -12.5 77.5s-19.833 47.333 -34.5 67s-32 35.5 -52 47.5s-41.333 19 -64 21v-467z
M434 99.999c0.666992 -26 -1.50293 -50.3301 -6.50293 -72.9971s-11.667 -43.167 -20 -61.5s-17.5 -34.833 -27.5 -49.5s-20 -27.334 -30 -38.001c12.667 8 25.834 20.667 39.501 38s25.834 36.666 36.501 57.999s19.167 43.166 25.5 65.499s9.16602 42.5 8.49902 60.5
c-1.33301 30 -9.16602 62.667 -23.499 98s-42.166 70 -83.499 104l35 -47c10 -14 18.333 -28.5 25 -43.5s11.667 -31.167 15 -48.5s5.33301 -38.333 6 -63zM165.997 707.002c-12.667 0 -31.668 -0.832031 -57.001 -2.49902s-53.333 -6.16699 -84 -13.5v49l217 3v-393
c44.667 -2.66699 82.834 -11.834 114.501 -27.501s57.5 -35 77.5 -58s34.5 -48.667 43.5 -77s13.5 -56.166 13.5 -83.499c0 -31.333 -6.83301 -63.833 -20.5 -97.5s-32.167 -64.334 -55.5 -92.001s-50.833 -50.5 -82.5 -68.5s-65.5 -27 -101.5 -27h-65v888z" />
    <glyph glyph-name="afii10045" unicode="&#x42b;" horiz-adv-x="498" 
d="M108 743l-0.000976562 -392.999c44.667 -2.66699 82.834 -11.834 114.501 -27.501s57.5 -35 77.5 -58s34.5 -48.667 43.5 -77s13.5 -56.166 13.5 -83.499c0 -31.333 -6.83301 -63.833 -20.5 -97.5s-32.167 -64.334 -55.5 -92.001s-50.833 -50.5 -82.5 -68.5
s-65.5 -27 -101.5 -27h-65v926zM78.999 715.001h-17v-866h16zM108.999 -149.999l-1 -0.000976562c26.667 0.666992 50.167 9.33398 70.5 26.001s37.5 37.5 51.5 62.5s24.5 52.167 31.5 81.5s10.5 57.333 10.5 84s-4.16699 52.5 -12.5 77.5s-19.833 47.333 -34.5 67
s-32 35.5 -52 47.5s-41.333 19 -64 21v-467zM299.999 100c0.666992 -26 -1.50293 -50.3301 -6.50293 -72.9971s-11.667 -43.167 -20 -61.5s-17.5 -34.833 -27.5 -49.5s-20 -27.334 -30 -38.001c12.667 8 25.834 20.667 39.501 38s25.834 36.666 36.501 57.999
s19.167 43.166 25.5 65.499s9.16602 42.5 8.49902 60.5c-1.33301 30 -9.16602 62.667 -23.499 98s-42.166 70 -83.499 104l35 -47c10 -14 18.333 -28.5 25 -43.5s11.667 -31.167 15 -48.5s5.33301 -38.333 6 -63zM381.996 -179.997v922h77v-922h-77zM428.996 712.003h-17
v-862h17v862z" />
    <glyph glyph-name="afii10046" unicode="&#x42c;" horiz-adv-x="390" 
d="M110 743l-0.000976562 -392.999c44.667 -2.66699 82.834 -11.834 114.501 -27.501s57.5 -35 77.5 -58s34.5 -48.667 43.5 -77s13.5 -56.166 13.5 -83.499c0 -31.333 -6.83301 -63.833 -20.5 -97.5s-32.167 -64.334 -55.5 -92.001s-50.833 -50.5 -82.5 -68.5
s-65.5 -27 -101.5 -27h-65v926zM80.999 715.001h-17v-866h16zM110.999 -149.999l-1 -0.000976562c26.667 0.666992 50.167 9.33398 70.5 26.001s37.5 37.5 51.5 62.5s24.5 52.167 31.5 81.5s10.5 57.333 10.5 84s-4.16699 52.5 -12.5 77.5s-19.833 47.333 -34.5 67
s-32 35.5 -52 47.5s-41.333 19 -64 21v-467zM301.999 100c0.666992 -26 -1.50293 -50.3301 -6.50293 -72.9971s-11.667 -43.167 -20 -61.5s-17.5 -34.833 -27.5 -49.5s-20 -27.334 -30 -38.001c12.667 8 25.834 20.667 39.501 38s25.834 36.666 36.501 57.999
s19.167 43.166 25.5 65.499s9.16602 42.5 8.49902 60.5c-1.33301 30 -9.16602 62.667 -23.499 98s-42.166 70 -83.499 104l35 -47c10 -14 18.333 -28.5 25 -43.5s11.667 -31.167 15 -48.5s5.33301 -38.333 6 -63z" />
    <glyph glyph-name="afii10047" unicode="&#x42d;" horiz-adv-x="961" 
d="M383 745c66.667 0 127.17 -12.1699 181.503 -36.5029s101 -57.666 140 -99.999s69.5 -92 91.5 -149s34 -117.833 36 -182.5c0 -16.667 -0.5 -32.834 -1.5 -48.501s-2.83301 -31.167 -5.5 -46.5c27.333 1.33301 50.333 -2.66699 69 -12c20 -9.33301 36.667 -22 50 -38
l-24 -19c-10.667 12.667 -23.5 23 -38.5 31s-31.5 11.333 -49.5 10h-12c-10.667 -50 -28.334 -96.167 -53.001 -138.5s-54.834 -79 -90.501 -110s-76.5 -55.167 -122.5 -72.5s-95.333 -26 -148 -26h-11c-74.667 1.33301 -144.167 19.833 -208.5 55.5
s-120.5 88.834 -168.5 159.501l24 16c46 -66.667 99.5 -116.834 160.5 -150.501s126.833 -50.5 197.5 -50.5c42.667 0 82.5 7.83301 119.5 23.5s70 37.334 99 65.001s53.833 60.334 74.5 98.001s36 78.834 46 123.501l-158 -7c-23.333 -1.33301 -44.833 2.66699 -64.5 12
s-36.167 22 -49.5 38l24 19c10 -12.667 22.5 -22.667 37.5 -30s31.5 -10.666 49.5 -9.99902l167 7c2.66699 16 4.66699 32.5 6 49.5s2 34.167 2 51.5c-1.33301 59.333 -11 115.5 -29 168.5s-43.167 99.5 -75.5 139.5s-71 71.667 -116 95s-94.833 35 -149.5 35
c-26.667 1.33301 -54.5 -2.16699 -83.5 -10.5s-58 -21 -87 -38s-57.333 -38.333 -85 -64s-52.834 -54.834 -75.501 -87.501l-24 16c48 70.667 101.833 123 161.5 157s124.167 53 193.5 57zM677.003 591.997c32 -42.667 56.999 -90.667 74.999 -144s27.667 -110.333 29 -171
c2 -64 -5.66699 -123.333 -23 -178s-42.333 -103.334 -75 -146.001c40 40.667 70.333 88.667 91 144s30.334 115.333 29.001 180c-1.33301 62.667 -13 120.334 -35 173.001s-52.333 100 -91 142z" />
    <glyph glyph-name="afii10048" unicode="&#x42e;" horiz-adv-x="1173" 
d="M1146 280c0 -74 -11.166 -140.666 -33.499 -199.999s-52.833 -109.833 -91.5 -151.5s-84 -73.667 -136 -96s-107.333 -33.5 -166 -33.5s-114 12.5 -166 37.5s-97.333 59.333 -136 103s-69.334 94.5 -92.001 152.5c-5.33301 13.333 -10 27 -14 41l-106 6v-320h-76v321
c-38 -6 -68.333 -23.333 -91 -52l-24 19c29.333 36 67.666 57 114.999 63v575h76v-577l99 -5c-8 37.333 -12 76 -12 116c0 65.333 11.167 127 33.5 185s52.833 108.667 91.5 152s84 77.5 136 102.5s107.333 37.5 166 37.5v-30c-47.333 0 -91.333 -11.833 -132 -35.5
s-76.5 -55.667 -107.5 -96s-55.167 -87.666 -72.5 -141.999s-26 -112.166 -26 -173.499c0 -42 3.66699 -82 11 -120l57 -2c18 3.33301 35.167 9.5 51.5 18.5s30.5 20.5 42.5 34.5l22 -19c-14.667 -18 -32 -32.333 -52 -43s-41.333 -17.334 -64 -20.001v-1l-50 2l8 -25
c17.333 -54 41.5 -101.333 72.5 -142s66.833 -73 107.5 -97s84.334 -36 131.001 -36h1c46.667 0 90.5 11 131.5 33s77 52.333 108 91s55.167 84.667 72.5 138s26 110.666 26 171.999c0 58.667 -5.66699 113 -17 163s-27 93.333 -47 130s-43.667 65.334 -71 86.001
s-56.666 31 -87.999 31v2h-3c-24 0 -46.667 -4 -68 -12s-40.833 -19.833 -58.5 -35.5s-32.5 -34.167 -44.5 -55.5s-20.333 -45 -25 -71l-29 4c6 30.667 15.667 58.167 29 82.5s30 45.166 50 62.499s42.5 30.5 67.5 39.5s51.167 13.5 78.5 13.5h3
c4 0 7.5 -0.166992 10.5 -0.5s6.5 -0.5 10.5 -0.5c36.667 -4.66699 72.5 -17.834 107.5 -39.501s66.167 -50.667 93.5 -87s49.166 -79.5 65.499 -129.5s24.5 -105.333 24.5 -166zM1116 280.001c0 68.667 -10.834 129.834 -32.501 183.501s-49.167 97.5 -82.5 131.5
c26.667 -40 47.667 -88.167 63 -144.5s23 -118.833 23 -187.5s-10.167 -131.834 -30.5 -189.501s-48.166 -107.167 -83.499 -148.5c44 38.667 78.833 88 104.5 148s38.5 129 38.5 207zM461 -62.999c-34.667 44 -61.667 95.001 -81 153.001s-29 121 -29 189
c0 66.667 9.66699 129 29 187s46.333 108.667 81 152c-43.333 -40.667 -77.333 -90.334 -102 -149.001s-37 -122 -37 -190c0 -69.333 12.333 -133.333 37 -192s58.667 -108.667 102 -150zM175 715.002h-16v-866h16v866z" />
    <glyph glyph-name="afii10049" unicode="&#x42f;" horiz-adv-x="434" 
d="M153 241l-31.001 -30.001c-10 -10 -18.667 -20.5 -26 -31.5s-13.166 -23.167 -17.499 -36.5s-5.83301 -28.333 -4.5 -45c1.33301 -27.333 7 -52.833 17 -76.5s20.5 -45.667 31.5 -66s20.5 -39.166 28.5 -56.499s10.667 -33.333 8 -48c6 14.667 6.66699 32 2 52
s-11.5 40.667 -20.5 62l-26.5 63.5c-8.66699 21 -14 39.833 -16 56.5c-2 20.667 -2 38.5 0 53.5s5.5 28.5 10.5 40.5s11.333 23 19 33s16.167 19.667 25.5 29zM318.999 279.999c-48.667 -7.33301 -86.832 -18.6689 -114.499 -34.002s-47.834 -33.166 -60.501 -53.499
s-19 -42.5 -19 -66.5s3.33301 -48.333 10 -73s15 -49.167 25 -73.5l27 -67.5c8 -20 8.5 -39 1.5 -57s-17.667 -32.333 -32 -43s-30.5 -16.5 -48.5 -17.5s-34.333 5.5 -49 19.5c-4 3.33301 -8.16699 8.33301 -12.5 15s-7.5 13.834 -9.5 21.501s-1.66699 14.834 1 21.501
s9 11.667 19 15c8.66699 3.33301 16.167 2.5 22.5 -2.5s10.166 -8.83301 11.499 -11.5c2.66699 -4 3.16699 -8.16699 1.5 -12.5s-3.66699 -8.5 -6 -12.5s-4.33301 -7.83301 -6 -11.5s-1.5 -6.83398 0.5 -9.50098c9.33301 -10 18.5 -15.167 27.5 -15.5s16.5 2.66699 22.5 9
s9.33301 15.5 10 27.5s-2.66602 25 -9.99902 39l-33.5 53.5c-11 18.333 -20.5 36.833 -28.5 55.5s-14 37.5 -18 56.5s-4.66699 37.833 -2 56.5c2.66699 20.667 9.5 41.167 20.5 61.5s25 39 42 56s36.833 31.667 59.5 44s47.334 20.5 74.001 24.5
c-26 7.33301 -50.5 18 -73.5 32s-42.833 30.5 -59.5 49.5s-29.834 40.167 -39.501 63.5s-14.5 48 -14.5 74c0 31.333 7.16699 61 21.5 89s33.833 52.5 58.5 73.5s53.167 37.667 85.5 50s66.5 18.5 102.5 18.5h65v-926h-73zM344.001 -151.004h17v866h-16zM315.001 713.996
c-22.667 -2.66699 -44.335 -9.66699 -65.002 -21s-39 -25.833 -55 -43.5s-28.667 -38 -38 -61s-14 -47.833 -14 -74.5c0 -27.333 4.66699 -52.5 14 -75.5s21.833 -43.333 37.5 -61s33.834 -32.167 54.501 -43.5s42.334 -18.333 65.001 -21v401h1zM113 513.996
c0 56 16 104.667 48 146c-22.667 -18.667 -40.5 -40.5 -53.5 -65.5s-19.5 -51.833 -19.5 -80.5c0 -30 6.5 -57.5 19.5 -82.5s31.167 -46.833 54.5 -65.5c-15.333 20 -27.333 42.667 -36 68s-13 52 -13 80z" />
    <glyph glyph-name="afii10065" unicode="&#x430;" horiz-adv-x="354" 
d="M147 51c-26 0 -48 8.99902 -66 26.999s-27 40 -27 66c0 24.667 9 45.834 27 63.501s39.333 26.5 64 26.5h32l-44 79l42 24l165 -285h-193v-1zM147 186.999c-12 0 -22.334 -4.5 -31.001 -13.5s-13 -18.833 -13 -29.5c0 -12 4.33301 -22.5 13 -31.5
s18.334 -13.5 29.001 -13.5h110l-50 88h-58z" />
    <glyph glyph-name="afii10066" unicode="&#x431;" horiz-adv-x="324" 
d="M153 51c-25.333 -0.666992 -45.501 3.67188 -60.501 13.0049s-26.167 21.666 -33.5 36.999s-11.5 33 -12.5 53s0.166992 40.667 3.5 62c6.66699 43.333 15 78.666 25 105.999s23 50 39 68s36 32.667 60 44s53.333 22.666 88 33.999l-1 -51c-18 -6 -36 -12.667 -54 -20
s-34.333 -17.333 -49 -30s-27.167 -29.5 -37.5 -50.5s-16.833 -47.833 -19.5 -80.5c4.66699 4.66699 8.83398 8.66699 12.501 12s8.66699 6.33301 15 9s14.833 4.66699 25.5 6s25.334 2 44.001 2c14 0 27.333 -2.83301 40 -8.5s24 -13.5 34 -23.5s17.833 -21.5 23.5 -34.5
s8.5 -26.833 8.5 -41.5c0 -14 -2.83301 -27.333 -8.5 -40s-13.167 -23.834 -22.5 -33.501s-20.333 -17.334 -33 -23.001s-26.334 -8.5 -41.001 -8.5zM152.999 217.006c-17.333 0 -31.501 -6 -42.501 -18s-16.5 -26 -16.5 -42c0 -14.667 5.5 -28 16.5 -40s24.5 -18 40.5 -18
h47c16.667 0 30.5 6 41.5 18s16.5 25.333 16.5 40c0 16 -5.66699 30 -17 42s-24.666 18 -39.999 18h-46z" />
    <glyph glyph-name="afii10067" unicode="&#x432;" horiz-adv-x="322" 
d="M104 183h60.001c9.33301 0 17.166 3.16699 23.499 9.5s9.5 16.833 9.5 31.5h-93v-41zM236.001 93c-12.667 34 -35.667 51 -69 51h-63v-52zM104.001 53l-48.999 -0.000976562v-1v85v47v82h193v-26c0 -22 -8 -44.333 -24 -67c8.66699 -4 17.5 -10 26.5 -18
s17.167 -17.333 24.5 -28s13.166 -22.167 17.499 -34.5s6.5 -25.166 6.5 -38.499z" />
    <glyph glyph-name="afii10068" unicode="&#x433;" horiz-adv-x="283" 
d="M262 214l-160 1v-164h-48v214h208v-51z" />
    <glyph glyph-name="afii10069" unicode="&#x434;" horiz-adv-x="339" 
d="M111 244c8.66699 8 21.999 13.5 39.999 16.5s36.333 4.33301 55 4s35.5 -1.66602 50.5 -3.99902s24.167 -4.83301 27.5 -7.5v-165h42v-75h-42v32h-230v-32h-42v75c20 2 36.5 7.66699 49.5 17s23.5 21.166 31.5 35.499s13.333 30.5 16 48.5s3.33398 36.333 2.00098 55z
M234.999 88v132.001c-12.667 7.33301 -27.167 10.5 -43.5 9.5s-28.5 -4.16699 -36.5 -9.5c2.66699 -32.667 -1 -59.334 -11 -80.001s-23.667 -38 -41 -52h132z" />
    <glyph glyph-name="afii10070" unicode="&#x435;" horiz-adv-x="298" 
d="M159 181l64.0039 0.000976562c-8.66699 14 -17.334 23.5 -26.001 28.5s-17.334 7.5 -26.001 7.5h-11c-16 0 -29.667 -6 -41 -18s-17 -26 -17 -42c0 -14.667 5.66699 -27.834 17 -39.501s24.666 -17.5 39.999 -17.5h42v-49h-41c-28.667 0 -53.5 10.5 -74.5 31.5
s-31.5 45.833 -31.5 74.5c0 30 10.167 55.5 30.5 76.5s45.166 31.5 74.499 31.5h10c30 0 55.5 -10.5 76.5 -31.5s31.5 -45.833 31.5 -74.5v-24h-118v46z" />
    <glyph glyph-name="afii10072" unicode="&#x436;" horiz-adv-x="485" 
d="M236 51l0.00195312 85h-50c-22.667 0 -42.334 -7.66699 -59.001 -23s-25 -35.666 -25 -60.999v0h-48v0c0 26 6.5 49.333 19.5 70s31.5 37 55.5 49c-16 22.667 -24 45 -24 67v24h50v-24c0 -14.667 4.66699 -27.5 14 -38.5s22 -16.5 38 -16.5h29v82h49v-81h29
c16 0 28.667 5.5 38 16.5s14 23.833 14 38.5v24h50v-24c0 -22 -8 -44.333 -24 -67c24 -12 42.5 -28.333 55.5 -49s19.5 -44 19.5 -70v0h-48v0c0 25.333 -8.33301 45.666 -25 60.999s-36.334 23 -59.001 23h-50v-85h-49v-1z" />
    <glyph glyph-name="afii10073" unicode="&#x437;" horiz-adv-x="268" 
d="M74 182c23.333 -0.666992 41.3359 0.167969 54.0029 2.50098s21.5 5.33301 26.5 9s6.83301 7.66699 5.5 12s-4.33301 8.16602 -9 11.499c-3.33301 2 -8.66602 3.5 -15.999 4.5s-16 1.83301 -26 2.5s-20.833 0.833984 -32.5 0.500977s-22.834 -0.833008 -33.501 -1.5v42
c50.667 0 89.667 -0.666992 117 -2s44.333 -7.66602 51 -18.999c2 -4 3.83301 -8.66699 5.5 -14s2.16699 -10.833 1.5 -16.5s-3 -11.334 -7 -17.001s-11 -11.167 -21 -16.5c17.333 -0.666992 30.5 -3.83398 39.5 -9.50098s15.5 -12.334 19.5 -20.001s6.16699 -15 6.5 -22
s0.166016 -12.5 -0.500977 -16.5c-6 -25.333 -26.333 -42.166 -61 -50.499s-86.334 -10.5 -155.001 -6.5v37c17.333 -1.33301 35.833 -1.83301 55.5 -1.5s38.167 1.83301 55.5 4.5c14.667 2 25.667 5.16699 33 9.5s11 8.83301 11 13.5s-3.5 9.16699 -10.5 13.5
s-17.833 7.5 -32.5 9.5c-12.667 2 -25.334 2.66699 -38.001 2l-39 -2v41z" />
    <glyph glyph-name="afii10074" unicode="&#x438;" horiz-adv-x="346" 
d="M273 265l50.999 0.00292969v-214h-50v162c-19.333 2 -37.833 -0.333008 -55.5 -7s-34 -15.834 -49 -27.501s-28.5 -25.334 -40.5 -41.001s-21.667 -31.834 -29 -48.501v-37h-48v213h48v-99c6 10 14.833 20.5 26.5 31.5s25.334 21 41.001 30s32.5 16.833 50.5 23.5
s36.333 11 55 13v1z" />
    <glyph glyph-name="afii10075" unicode="&#x439;" horiz-adv-x="346" 
d="M273 265l50.999 0.00292969v-214h-50v162c-19.333 2 -37.833 -0.333008 -55.5 -7s-34 -15.834 -49 -27.501s-28.5 -25.334 -40.5 -41.001s-21.667 -31.834 -29 -48.501v-37h-48v213h48v-99c6 10 14.833 20.5 26.5 31.5s25.334 21 41.001 30s32.5 16.833 50.5 23.5
s36.333 11 55 13v1zM192.999 345.003c-28 0 -51.834 8.83203 -71.501 26.499s-31.834 43.834 -36.501 78.501l46 2c-1.33301 -22.667 4.66699 -39.667 18 -51s27.833 -17 43.5 -17s29.834 5.66699 42.501 17s18.334 28.333 17.001 51l46 -1c-4 -34.667 -15.5 -61 -34.5 -79
s-42.5 -27 -70.5 -27z" />
    <glyph glyph-name="afii10076" unicode="&#x43a;" horiz-adv-x="302" 
d="M237 57c0 25.333 -8.33203 45.667 -24.999 61s-36.334 23 -59.001 23h-50v-90h-49v216h49v-79h29c16 0 28.667 5.5 38 16.5s14 23.833 14 38.5v24h50v-24c0 -22 -8 -44.333 -24 -67c24 -12 42.5 -28.333 55.5 -49s19.5 -44 19.5 -70v-5h-48v5z" />
    <glyph glyph-name="afii10077" unicode="&#x43b;" horiz-adv-x="344" 
d="M257 265c12 0 23.501 -1.16797 34.501 -3.50098s21.833 -5.16602 32.5 -8.49902v-200h-49v163h-17c-26 0 -48.667 -4.5 -68 -13.5s-35.5 -21.5 -48.5 -37.5s-22.833 -34.333 -29.5 -55s-10.334 -39.667 -11.001 -57h-48c0 24.667 4.66699 50.5 14 77.5s23 50.167 41 69.5
s39.5 34.833 64.5 46.5s53.167 17.5 84.5 17.5v1z" />
    <glyph glyph-name="afii10078" unicode="&#x43c;" horiz-adv-x="432" 
d="M193 265c10 0 19.5 -1.16699 28.5 -3.5s18.167 -4.5 27.5 -6.5v-32c36.667 28 72.667 42 108 42c10 0 19.5 -1.16699 28.5 -3.5s17.833 -4.5 26.5 -6.5v-202h-48v163c-42 0 -71.667 -12.5 -89 -37.5s-26 -54.167 -26 -87.5v-38h-48v163c-41.333 0 -71 -12.833 -89 -38.5
s-27 -54.834 -27 -87.501v-37h-49v37c0 48.667 13.667 89.834 41 123.501s66 50.5 116 50.5v1z" />
    <glyph glyph-name="afii10079" unicode="&#x43d;" horiz-adv-x="341" 
d="M102 265v-79l174 -1v80h48v-213h-48v87h-174v-88h-50v213z" />
    <glyph glyph-name="afii10080" unicode="&#x43e;" horiz-adv-x="324" 
d="M153 51c-30 0 -55.501 10.501 -76.501 31.501s-31.5 45.833 -31.5 74.5c0 30 10.5 55.5 31.5 76.5s45.833 31.5 74.5 31.5h47c28.667 0 53.5 -10.5 74.5 -31.5s31.5 -46.5 31.5 -76.5c0 -28.667 -10.167 -53.334 -30.5 -74.001s-45.166 -31 -74.499 -31zM152.999 217.001
c-17.333 0 -31.501 -6 -42.501 -18s-16.5 -26 -16.5 -42c0 -14.667 5.5 -28 16.5 -40s24.5 -18 40.5 -18h47c16.667 0 30.5 6 41.5 18s16.5 25.333 16.5 40c0 16 -5.66699 30 -17 42s-24.666 18 -39.999 18h-46z" />
    <glyph glyph-name="afii10081" unicode="&#x43f;" horiz-adv-x="346" 
d="M324 265v-213h-48v168h-174v-169h-50v213z" />
    <glyph glyph-name="afii10082" unicode="&#x440;" horiz-adv-x="300" 
d="M103 52v-353.999h-49v567h121c30 0 55.5 -10.5 76.5 -31.5s31.5 -46.5 31.5 -76.5c0 -28.667 -10.5 -53.334 -31.5 -74.001s-45.833 -31 -74.5 -31h-74zM103 216.001l0.000976562 -117h72c17.333 0 31.666 5.66699 42.999 17s17 25 17 41
c0 17.333 -5.66699 31.5 -17 42.5s-25 16.5 -41 16.5h-74z" />
    <glyph glyph-name="afii10083" unicode="&#x441;" horiz-adv-x="273" 
d="M162 51c-30 0 -55.501 10.5 -76.501 31.5s-31.5 45.833 -31.5 74.5c0 30 10.5 55.5 31.5 76.5s45.833 31.5 74.5 31.5h93v-48h-91c-17.333 0 -31.666 -6 -42.999 -18s-17 -26 -17 -42s5.66699 -29.5 17 -40.5s25 -16.5 41 -16.5h93v-48h-91v-1z" />
    <glyph glyph-name="afii10084" unicode="&#x442;" horiz-adv-x="288" 
d="M180 51h-48v163h-82v50l211 1v-49h-81v-165z" />
    <glyph glyph-name="afii10085" unicode="&#x443;" horiz-adv-x="341" 
d="M241 105c6 -3.33301 10 -5.00195 12 -5.00195v-48c-4.66699 0 -10 0.333008 -16 1s-12.667 1.33398 -20 2.00098l-105 -213l-43 21l100 207c-36 18 -63.667 44.333 -83 79s-30 73.334 -32 116.001h49c2 -32.667 10 -62.5 24 -89.5s35.667 -47.5 65 -61.5l73 151h56z" />
    <glyph glyph-name="afii10086" unicode="&#x444;" horiz-adv-x="478" 
d="M272 100c36 3.33301 64.5 13.668 85.5 31.001s33.833 45.666 38.5 84.999h-123zM223 -161.998v213c-58 4.66699 -101.5 23 -130.5 55s-43.5 76.667 -43.5 134v25h175v384h48v-384h175v-25c0 -57.333 -14.5 -102 -43.5 -134s-72.5 -50.333 -130.5 -55v-213h-49h-1z
M223 216.002l-123 -0.00195312c4.66699 -39.333 17.5 -67.666 38.5 -84.999s49.5 -27.666 85.5 -30.999z" />
    <glyph glyph-name="afii10087" unicode="&#x445;" horiz-adv-x="359" 
d="M187 153l-87 -102h-64l120 138l-66 76h64l33 -39l35 39h64l-66 -76l120 -137h-64z" />
    <glyph glyph-name="afii10088" unicode="&#x446;" horiz-adv-x="371" 
d="M354 51h-1v-28l-41 -2l-1 30l-259 1v213h50v-169h164v168h48v-168h40v-45z" />
    <glyph glyph-name="afii10089" unicode="&#x447;" horiz-adv-x="310" 
d="M241 266h47.999v-214h-48v63l-91 -1c-21.333 2.66699 -40.666 12.667 -57.999 30c-21.333 21.333 -32 46.333 -32 75v47h48v-47c0 -14.667 5.5 -28 16.5 -40s24.5 -18 40.5 -18l76 1v104zM165.999 113c-7.33301 0 -12.667 0.333008 -16 1z" />
    <glyph glyph-name="afii10090" unicode="&#x448;" horiz-adv-x="441" 
d="M426 54h-119v-3l-244 1v214h50v-169h106v171h50v-169h109v168h48v-213z" />
    <glyph glyph-name="afii10091" unicode="&#x449;" horiz-adv-x="488" 
d="M468 25l-44 -1l-1 30h-116v-3l-244 1v214h50v-169h106v171h50v-169h109v168h48v-168h42v-74z" />
    <glyph glyph-name="afii10092" unicode="&#x44a;" horiz-adv-x="444" 
d="M224 155v-54h110c10.667 0 20.5 1.83301 29.5 5.5s13.5 11.5 13.5 23.5c0 10.667 -4.5 17.5 -13.5 20.5s-19.5 4.5 -31.5 4.5h-108zM131 222v-29.999h-43v75h136v-65h110c24.667 0 46.167 -5.83301 64.5 -17.5s27.5 -29.834 27.5 -54.501
c0 -26 -9.16699 -45.333 -27.5 -58s-40.5 -19 -66.5 -19h-161l1 169h-41z" />
    <glyph glyph-name="afii10093" unicode="&#x44b;" horiz-adv-x="415" 
d="M62 51l161 -0.000976562c26 0 48.167 6.33301 66.5 19s27.5 32 27.5 58c0 24.667 -9.16699 42.834 -27.5 54.501s-39.833 17.5 -64.5 17.5h-110v65h-53v-214zM223 152.999c12 0 22.5 -1.5 31.5 -4.5s13.5 -9.83301 13.5 -20.5c0 -12 -4.5 -19.833 -13.5 -23.5
s-18.833 -5.5 -29.5 -5.5h-110v54h108zM345 267.999h48v-214h-48v214z" />
    <glyph glyph-name="afii10094" unicode="&#x44c;" horiz-adv-x="334" 
d="M62 265l53 0.000976562v-65h110c24.667 0 46.167 -5.83301 64.5 -17.5s27.5 -29.834 27.5 -54.501c0 -26 -9.16699 -45.333 -27.5 -58s-40.5 -19 -66.5 -19h-161v214zM115 153.001v-54h110c10.667 0 20.5 1.83301 29.5 5.5s13.5 11.5 13.5 23.5
c0 10.667 -4.5 17.5 -13.5 20.5s-19.5 4.5 -31.5 4.5h-108z" />
    <glyph glyph-name="afii10095" unicode="&#x44d;" horiz-adv-x="273" 
d="M144 52l-91.001 0.000976562v48h93c16 0 29.667 5.33301 41 16c5.33301 5.33301 9.33301 11.666 12 18.999h-96v44h96c-2.66699 7.33301 -6.66699 14 -12 20c-11.333 12 -25.666 18 -42.999 18h-91v48h93c28.667 0 53.5 -10.5 74.5 -31.5s31.5 -46.5 31.5 -76.5
c0 -28.667 -10.5 -53.5 -31.5 -74.5s-46.5 -31.5 -76.5 -31.5v1z" />
    <glyph glyph-name="afii10096" unicode="&#x44e;" horiz-adv-x="436" 
d="M267 53c-30 0 -55.668 10.333 -77.001 31c-16 16 -26 34.333 -30 55h-58v-88h-50v213l50 1v-80h60c4 18.667 13.333 35.334 28 50.001c21.333 21.333 46.333 32 75 32h47c28.667 0 53.5 -10.5 74.5 -31.5s31.5 -46.5 31.5 -76.5c0 -28.667 -10.167 -53.334 -30.5 -74.001
s-45.166 -31 -74.499 -31zM266.999 219c-17.333 0 -31.501 -6 -42.501 -18s-16.5 -26 -16.5 -42c0 -14.667 5.5 -28 16.5 -40s24.5 -18 40.5 -18h47c16.667 0 30.5 6 41.5 18s16.5 25.333 16.5 40c0 16 -5.66699 30 -17 42s-24.666 18 -39.999 18h-46z" />
    <glyph glyph-name="afii10097" unicode="&#x44f;" horiz-adv-x="349" 
d="M329 53l-53 -0.000976562v75h-85h-6c-16 -2 -31.333 -8.83301 -46 -20.5s-22 -28.167 -22 -49.5v-5h-48v5c0 22.667 5 41.334 15 56.001s23.667 24.667 41 30c-17.333 10.667 -26 27.667 -26 51c0 26 9.16699 44.167 27.5 54.5s40.5 15.5 66.5 15.5h136v-212z
M276 174.999v42h-85c-10.667 0 -20.5 -0.666992 -29.5 -2s-13.5 -8 -13.5 -20c0 -10.667 4.5 -16.667 13.5 -18s19.5 -2 31.5 -2h83z" />
    <glyph glyph-name="afii10101" unicode="&#x454;" horiz-adv-x="273" 
d="M160 51c-30 0 -55.501 10.499 -76.501 31.499s-31.5 45.833 -31.5 74.5c0 30 10.5 55.5 31.5 76.5s45.833 31.5 74.5 31.5h93v-48h-91c-17.333 0 -31.666 -6 -42.999 -18c-5.33301 -6 -9.33301 -12.667 -12 -20h96v-44h-96c2.66699 -7.33301 6.66699 -13.666 12 -18.999
c11.333 -10.667 25 -16 41 -16h93v-48h-91v-1z" />
    <glyph glyph-name="afii10103" unicode="&#x456;" horiz-adv-x="139" 
d="M75 388h48v-49h-48v49zM75 265h48v-214h-48v214z" />
    <glyph glyph-name="afii10104" unicode="&#x457;" horiz-adv-x="139" 
d="M110 388h48v-49h-48v49zM75 265h48v-214h-48v214zM33 388h48v-49h-48v49z" />
    <glyph glyph-name="afii10110" unicode="&#x45e;" horiz-adv-x="341" 
d="M241 105c6 -3.33301 10 -5.00195 12 -5.00195v-48c-4.66699 0 -10 0.333008 -16 1s-12.667 1.33398 -20 2.00098l-105 -213l-43 21l100 207c-36 18 -63.667 44.333 -83 79s-30 73.334 -32 116.001h49c2 -32.667 10 -62.5 24 -89.5s35.667 -47.5 65 -61.5l73 151h56z
M193 344.998c-28 0 -51.834 8.83203 -71.501 26.499s-31.834 43.834 -36.501 78.501l46 2c-1.33301 -22.667 4.66699 -39.667 18 -51s27.833 -17 43.5 -17s29.834 5.66699 42.501 17s18.334 28.333 17.001 51l46 -1c-4 -34.667 -15.5 -61 -34.5 -79s-42.5 -27 -70.5 -27z
" />
    <glyph glyph-name="afii10098" unicode="&#x490;" horiz-adv-x="429" 
d="M80 715h-15v-866h16zM359 743v67h43v-104l-287 1l-4 -888h-76v926z" />
    <glyph glyph-name="afii10098" unicode="&#x491;" horiz-adv-x="283" 
d="M218 264v47h43l1 -97l-160 1v-164h-48v214z" />
    <glyph glyph-name="endash" unicode="&#x2013;" horiz-adv-x="250" 
d="M27 146h202v32h-203z" />
    <glyph glyph-name="emdash" unicode="&#x2014;" horiz-adv-x="500" 
d="M22 146h457v32h-458z" />
    <glyph glyph-name="quoteleft" unicode="&#x2018;" horiz-adv-x="123" 
d="M12 524l34 -14l45 134l-13 6z" />
    <glyph glyph-name="quoteright" unicode="&#x2019;" horiz-adv-x="90" 
d="M85 631l-34 14l-45 -134l13 -6z" />
    <glyph glyph-name="quotesinglbase" unicode="&#x201a;" horiz-adv-x="123" 
d="M45 -91l59 142l-26 10l-59 -142z" />
    <glyph glyph-name="quotedblleft" unicode="&#x201c;" horiz-adv-x="138" 
d="M3 524l34 -14l45 134l-14 6zM52 524l35 -14l45 134l-14 6z" />
    <glyph glyph-name="quotedblright" unicode="&#x201d;" horiz-adv-x="140" 
d="M135 631l-34 14l-45 -134l13 -6zM85 631l-34 14l-45 -134l13 -6z" />
    <glyph glyph-name="quotedblbase" unicode="&#x201e;" horiz-adv-x="192" 
d="M114 -91l60 142l-26 10l-60 -142zM44 -91l60 142l-26 10l-60 -142z" />
    <glyph glyph-name="dagger" unicode="&#x2020;" horiz-adv-x="153" 
d="M93 265h49v33h-50v135h-32v-136h-49v-33h50v-372h32v373z" />
    <glyph glyph-name="daggerdbl" unicode="&#x2021;" horiz-adv-x="153" 
d="M93 29h49v32h-50v204h50v33h-50v135h-32v-136h-49v-33h50v-204h-50v-32h50v-136h32v137z" />
    <glyph glyph-name="bullet" unicode="&#x2022;" horiz-adv-x="200" 
d="M153 178c0 14.667 -5.16699 27.167 -15.5 37.5s-22.833 15.5 -37.5 15.5s-27.167 -5.16699 -37.5 -15.5s-15.5 -22.833 -15.5 -37.5s5.16699 -27 15.5 -37s22.833 -15 37.5 -15s27.167 5 37.5 15s15.5 22.333 15.5 37z" />
    <glyph glyph-name="ellipsis" unicode="&#x2026;" horiz-adv-x="399" 
d="M330 29c7.33301 0 13.666 2.5 18.999 7.5s8 11.5 8 19.5s-2.66699 14.667 -8 20s-12 8 -20 8c-7.33301 0 -13.666 -2.66699 -18.999 -8s-8 -12 -8 -20s2.66699 -14.667 8 -20s12 -8 20 -8v1zM199 28c8 0 14.666 2.66699 19.999 8s8 12 8 20s-2.66699 14.667 -8 20
s-12 8 -20 8c-7.33301 0 -13.666 -2.66699 -18.999 -8s-8 -12 -8 -20s2.66699 -14.667 8 -20s12 -8 20 -8h-1zM68.999 28c8 0 14.666 2.66699 19.999 8s8 12 8 20s-2.66699 14.667 -8 20s-12 8 -20 8c-7.33301 0 -13.666 -2.66699 -18.999 -8s-8 -12 -8 -20
s2.66699 -14.667 8 -20s12 -8 20 -8h-1z" />
    <glyph glyph-name="perthousand" unicode="&#x2030;" horiz-adv-x="461" 
d="M378 35c17.333 0 32.166 5.99902 44.499 17.999s18.5 26.667 18.5 44s-6.16699 32.166 -18.5 44.499s-27.166 18.5 -44.499 18.5s-32.166 -6.16699 -44.499 -18.5s-18.5 -27.166 -18.5 -44.499s6.16699 -32.166 18.5 -44.499s27.166 -18.5 44.499 -18.5v1zM83 185.999
c17.333 0 32.166 5.99902 44.499 17.999s18.5 26.667 18.5 44s-6.16699 32.166 -18.5 44.499s-27.166 18.5 -44.499 18.5s-32.166 -6.16699 -44.499 -18.5s-18.5 -27.166 -18.5 -44.499s6.16699 -32.166 18.5 -44.499s27.166 -18.5 44.499 -18.5v1zM230 33.998
c17.333 0 32.166 6.16699 44.499 18.5s18.5 27.166 18.5 44.499s-6.16699 32.166 -18.5 44.499s-27.166 18.5 -44.499 18.5s-32.166 -6.16699 -44.499 -18.5s-18.5 -27.166 -18.5 -44.499s6.16699 -32.166 18.5 -44.499s27.166 -18.5 44.499 -18.5zM80 7.99805l170 294
l-28 17l-170 -294zM378 126.998c8 0 15.001 -3.00098 21.001 -9.00098s9 -13 9 -21s-2.83301 -15.167 -8.5 -21.5s-12.834 -9.5 -21.501 -9.5c-8 0 -15.167 3.16699 -21.5 9.5s-9.5 13.5 -9.5 21.5c0 8.66699 3.16699 15.834 9.5 21.501s13.5 8.5 21.5 8.5zM83.001 277.997
c8 0 15.001 -3.00098 21.001 -9.00098s9 -13 9 -21s-2.83301 -15.167 -8.5 -21.5s-12.834 -9.5 -21.501 -9.5c-8 0 -15.167 3.16699 -21.5 9.5s-9.5 13.5 -9.5 21.5c0 8.66699 3.16699 15.834 9.5 21.501s13.5 8.5 21.5 8.5zM230.002 125.996
c8 0 15.001 -2.83398 21.001 -8.50098s9 -12.5 9 -20.5s-2.83301 -15.167 -8.5 -21.5s-12.834 -9.5 -21.501 -9.5c-8 0 -15.167 3.16699 -21.5 9.5s-9.5 13.5 -9.5 21.5c0 8.66699 3.16699 15.834 9.5 21.501s13.5 8.5 21.5 8.5v-1z" />
    <glyph glyph-name="guilsinglleft" unicode="&#x2039;" horiz-adv-x="150" 
d="M79 104h37l-47 77l47 78h-37l-48 -78z" />
    <glyph glyph-name="guilsinglright" unicode="&#x203a;" horiz-adv-x="150" 
d="M80 109h-37l47 77l-47 78h37l48 -78z" />
    <glyph glyph-name="afii61352" unicode="&#x2116;" horiz-adv-x="678" 
d="M397 359l-0.000976562 -537h-30v376c0 28 -5 54 -15 78s-23.333 46.167 -40 66.5s-36 39 -58 56s-45.333 32.167 -70 45.5c-22.667 12.667 -43.667 26.167 -63 40.5s-37 30.833 -53 49.5v-712h-30v863v58h30v-55c9.33301 -37.333 27.666 -69.333 54.999 -96
s58.333 -50 93 -70c28.667 -16.667 55.834 -35 81.501 -55s48.834 -41.667 69.501 -65v341h30v-381l1 -2zM366.999 350c-20 30.667 -44.168 57.668 -72.501 81.001s-59.166 45 -92.499 65c-26.667 16 -51.667 33.667 -75 53s-43 41.666 -59 66.999v-35
c16 -22.667 35.333 -43.167 58 -61.5s46.667 -34.833 72 -49.5c36 -20 68.667 -42.5 98 -67.5s53 -54.5 71 -88.5v36zM501.998 470.001h117v-48h-116zM560.998 555.001c-26 0 -48.333 9.16699 -67 27.5s-28 40.5 -28 66.5s9.33301 48.333 28 67s41 28 67 28
s48.167 -9.33301 66.5 -28s27.5 -41 27.5 -67s-9.16699 -48.167 -27.5 -66.5s-40.5 -27.5 -66.5 -27.5zM560.998 694.001c-12 0 -22.834 -4.16797 -32.501 -12.501s-14.5 -19.166 -14.5 -32.499c0 -12 4.83301 -22.667 14.5 -32s20.5 -14 32.5 -14
c12.667 0 23.334 4.66699 32.001 14s13 20 13 32s-4.5 22.333 -13.5 31s-19.5 13 -31.5 13v1z" />
    <glyph glyph-name="trademark" unicode="&#x2122;" horiz-adv-x="315" 
d="M278 331h19v132h-27l-43 -75l-43 75h-27v-133h20v109l50 -88l51 88v-108zM82 444h45v19h-109v-20h46v-113h19z" />
    <glyph glyph-name=".null" horiz-adv-x="0" 
 />
    <glyph glyph-name="nonmarkingreturn" horiz-adv-x="200" 
 />
    </font>
</defs>
</svg>
